<?xml version="1.0" encoding="UTF-8" standalone="no"?>

<svg
   width="20"
   height="20"
   viewBox="0 0 5.2916665 5.2916666"
   version="1.1"
   id="svg5"
   xmlns="http://www.w3.org/2000/svg"
   xmlns:svg="http://www.w3.org/2000/svg">
  <defs
     id="defs2" />
  <g
     id="layer1">
    <g
       aria-label="3"
       id="text2584"
       style="fill:#ff0000;stroke-width:0.264583">
      <path
         d="m 3.1153757,4.4979165 q -0.8712617,0 -1.9303403,-0.1043427 V 3.6892605 q 1.1529871,0.078257 1.7216549,0.078257 0.1199941,0 0.1878169,-0.067823 0.07304,-0.07304 0.07304,-0.1930341 V 3.2979755 q 0,-0.3130282 -0.3130282,-0.3130282 H 1.7589204 V 2.2545481 h 0.9912558 q 0.3130282,0 0.3130282,-0.3130282 V 1.8371772 q 0,-0.3130282 -0.3130282,-0.3130282 H 1.2372068 V 0.79375001 H 3.011033 q 0.5112793,0 0.7512676,0.23477109 0.2399882,0.229554 0.2399882,0.7043134 0,0.3130281 -0.1460798,0.5112793 -0.1408627,0.193034 -0.3756338,0.2712911 0.422588,0.114777 0.573885,0.5634507 0.052171,0.1617312 0.052171,0.3756337 v 0.052171 q 0,0.5112793 -0.2399882,0.7512676 -0.2399883,0.2399882 -0.7512673,0.2399886 z"
         id="path2676"
         style="stroke-width:0.279488" />
    </g>
  </g>
</svg>
