<?xml version="1.0" encoding="UTF-8" standalone="no"?>

<svg
   width="20"
   height="20"
   viewBox="0 0 5.2916665 5.2916666"
   version="1.1"
   id="svg5"
   xmlns="http://www.w3.org/2000/svg"
   xmlns:svg="http://www.w3.org/2000/svg">
  <defs
     id="defs2" />
  <g
     id="layer1">
    <g
       aria-label="6"
       id="text2584"
       style="fill:#830808;stroke-width:0.264583"
       transform="matrix(1.0416644,0,0,1.0416644,-1.0949634,1.6607902)">
      <path
         d="m 3.1219771,-0.83236053 q 0.6766293,0 1.629837,0.098778 v 0.6667515 q -0.2716395,-0.0148167 -0.4642566,-0.0246945 -0.1876782,-0.0148167 -0.3111507,-0.0197556 -0.1185336,-0.009878 -0.2370672,-0.0197556 -0.197556,-0.009878 -0.3654786,-0.009878 -0.3012729,0 -0.3012729,0.246945 v 0.444501 q 0.4790733,-0.098778 0.839613,-0.098778 h 0.345723 q 0.3358452,0 0.5383401,0.2024949 0.2024949,0.2024949 0.2024949,0.53834013 v 0.642057 q 0,0.4494399 -0.2271894,0.6716904 -0.2271894,0.2173116 -0.7112016,0.2173116 h -0.938391 q -0.4840122,0 -0.7112016,-0.2173116 Q 2.1835861,2.2840854 2.1835861,1.8346455 V 0.10603047 q 0,-0.4840122 0.2271894,-0.7112016 0.2271894,-0.2271894 0.7112016,-0.2271894 z m 0.543279,1.97556003 q -0.1876782,0 -0.345723,0.019756 -0.1531059,0.019756 -0.246945,0.029633 v 0.543279 q 0,0.296334 0.296334,0.296334 h 0.444501 q 0.296334,0 0.296334,-0.296334 V 1.316061 q 0,-0.074083 -0.049389,-0.1234725 -0.049389,-0.049389 -0.1234725,-0.049389 z"
         id="path2722" />
    </g>
  </g>
</svg>
