<?xml version="1.0" encoding="UTF-8" standalone="no"?>

<svg
   width="20"
   height="20"
   viewBox="0 0 5.2916665 5.2916666"
   version="1.1"
   id="svg5"
   xmlns="http://www.w3.org/2000/svg"
   xmlns:svg="http://www.w3.org/2000/svg">
  <defs
     id="defs2" />
  <g
     id="layer1">
    <g
       aria-label="8"
       id="text2584"
       style="fill:#000000;stroke-width:0.264583"
       transform="matrix(1.0416643,0,0,1.0416643,-1.1464098,1.6607902)">
      <path
         d="m 3.3195331,1.2913665 q -0.296334,0 -0.296334,0.296334 v 0.197556 q 0,0.1135947 0.064206,0.1827393 0.069145,0.064206 0.1827393,0.064206 h 0.740835 q 0.1135947,0 0.1778004,-0.064206 0.069145,-0.069145 0.069145,-0.1827393 v -0.197556 q 0,-0.296334 -0.296334,-0.296334 z m 0.098778,-1.43228103 q -0.296334,0 -0.296334,0.296334 v 0.148167 q 0,0.296334 0.296334,0.296334 h 0.444501 q 0.296334,0 0.296334,-0.296334 v -0.148167 q 0,-0.296334 -0.296334,-0.296334 z m 1.728615,1.92617103 q 0,0.4840122 -0.2271894,0.7112016 -0.2271894,0.2271894 -0.7112016,0.2271894 h -1.135947 q -0.4840122,0 -0.7112016,-0.2271894 Q 2.1341971,2.2692687 2.1341971,1.7852565 v -0.049389 q 0,-0.3753564 0.1876782,-0.6223014 Q 2.4700423,0.91601007 2.7268651,0.84686547 2.5046146,0.77278197 2.3663254,0.59004267 2.2329751,0.40236447 2.2329751,0.10603047 v -0.049389 q 0,-0.4494399 0.2271894,-0.6667515 0.2271894,-0.2222505 0.7112016,-0.2222505 h 0.938391 q 0.4840122,0 0.7112016,0.2222505 0.2271894,0.2173116 0.2271894,0.6667515 v 0.049389 q 0,0.296334 -0.1382892,0.4840122 -0.1333503,0.1827393 -0.3556008,0.2568228 0.4000509,0.1086558 0.543279,0.53340123 0.049389,0.1531059 0.049389,0.3556008 z"
         id="path2750" />
    </g>
  </g>
</svg>
