<?xml version="1.0" encoding="UTF-8" standalone="no"?>
<svg
   width="20"
   height="20"
   viewBox="0 0 5.2916665 5.2916666"
   version="1.1"
   id="svg23223"
   xml:space="preserve"
   xmlns="http://www.w3.org/2000/svg"
   xmlns:svg="http://www.w3.org/2000/svg"><defs
     id="defs23220" /><g
     id="layer1"><path
       style="fill:#ff2a2a;fill-opacity:1;stroke:#d40000;stroke-width:0.529167;stroke-linejoin:miter;stroke-dasharray:none;stroke-opacity:1;paint-order:markers fill stroke"
       id="rect10140-09"
       width="4.7625132"
       height="4.7625933"
       x="0.2645835"
       y="0.2645835"
       d="M 1.5875002,0.2645835 H 3.70418 A 1.3229167,1.3229167 45 0 1 5.0270967,1.5875002 V 3.7042601 A 1.3229167,1.3229167 135 0 1 3.70418,5.0271768 H 1.5875002 A 1.3229167,1.3229167 45 0 1 0.2645835,3.7042601 V 1.5875002 A 1.3229167,1.3229167 135 0 1 1.5875002,0.2645835 Z" /><path
       fill="currentColor"
       d="m 3.4227617,0.80877674 a 0.14432441,0.14432441 0 0 1 0.1935873,0.064465 L 3.712565,1.0656742 A 0.14432441,0.14432441 0 1 1 3.4543209,1.1946039 L 3.3581039,1.0021713 A 0.14432441,0.14432441 0 0 1 3.4227609,0.80858424 Z M 4.0318113,1.6429717 a 0.14432441,0.14432441 0 0 1 0.1933946,-0.064657 l 0.1924323,0.096216 a 0.14432441,0.14432441 0 1 1 -0.12893,0.2582445 L 4.0962759,1.8365592 A 0.14432441,0.14432441 0 0 1 4.0316189,1.6429721 Z M 4.3589461,1.1359119 A 0.14432441,0.14432441 0 0 0 4.1549679,0.93193354 L 3.9625355,1.124366 A 0.14432441,0.14432441 0 0 0 4.1665139,1.3283445 Z M 3.6796593,3.0544644 a 1.4432441,1.4432441 0 1 1 -2.88648808,0 1.4432441,1.4432441 0 0 1 2.88648808,0 z M 3.7816484,1.7132095 3.5588119,1.9364313 A 1.7422842,1.7422842 0 0 0 3.354833,1.7322603 L 3.5776702,1.5092311 a 0.14432441,0.14432441 0 1 1 0.2039782,0.2039784 z"
       id="path30640"
       style="fill:#000000;fill-opacity:1;stroke-width:0.264583" /></g></svg>
