<?xml version="1.0" encoding="UTF-8" standalone="no"?>

<svg
   width="20"
   height="20"
   viewBox="0 0 5.2916665 5.2916666"
   version="1.1"
   id="svg23223"
   xml:space="preserve"
   xmlns="http://www.w3.org/2000/svg"
   xmlns:svg="http://www.w3.org/2000/svg"><defs
     id="defs23220" /><g
     id="layer1"><path
       fill="currentColor"
       d="M 1.5410994,0.79391898 A 0.12993667,0.12921048 0 0 1 1.6710365,0.92312914 V 1.2418489 l 0.2979878,-0.059267 a 1.5032806,1.4948792 0 0 1 0.853251,0.077871 l 0.071551,0.028428 a 1.2647169,1.2576487 0 0 0 0.776501,0.052371 0.12647169,0.12576487 0 0 1 0.1391196,0.186752 L 3.5880351,1.8951354 c -0.059254,0.0982 -0.088877,0.1471277 -0.095806,0.2003623 -0.00295,0.022399 -0.00295,0.044792 0,0.067191 0.00693,0.053237 0.036558,0.1023345 0.095806,0.2003621 l 0.2702682,0.447929 a 0.155924,0.15505257 0 0 1 -0.095806,0.2301665 l -0.017325,0.00429 A 1.5032806,1.4948792 0 0 1 2.8222739,2.9832534 1.5031074,1.494707 0 0 0 1.9691965,2.9053821 l -0.2981613,0.059268 v 1.4040877 a 0.12993674,0.12921055 0 0 1 -0.2598734,0 V 0.92312344 A 0.12993667,0.12921048 0 0 1 1.5410982,0.79391326 Z"
       id="path30066"
       style="fill:#cc2727;fill-opacity:1;stroke-width:0.264583" /></g></svg>
