<?xml version="1.0" encoding="UTF-8" standalone="no"?>
<svg
   width="80"
   height="80"
   viewBox="0 0 59.795832 59.795833"
   version="1.1"
   id="svg11876"
   xmlns="http://www.w3.org/2000/svg"
   xmlns:svg="http://www.w3.org/2000/svg">
  <defs
     id="defs86" />
  <g
     id="layer1"
     transform="translate(-2.6092585e-7,4.4979169)">
    <g
       id="g81893"
       transform="matrix(0.97128579,0,0,0.9712852,0.44359627,0.72944039)">
      <path
         id="path81687"
         style="color:#000000;fill:#f0b17b;fill-opacity:1;stroke:#ffffff;stroke-width:4.5;stroke-linejoin:round;stroke-dasharray:none;stroke-opacity:1;paint-order:stroke fill markers"
         d="m 25.475964,4.9516357 c -0.828029,0.00604 -1.699089,0.1688045 -2.583304,0.5276164 -1.806403,0.7330331 -2.964142,2.131171 -3.556373,3.7222534 -0.59223,1.5910825 -0.723777,3.3684685 -0.780314,5.2343055 -0.113074,3.731674 0.08079,7.841391 -1.394747,11.253577 -0.533751,1.2343 -1.866481,2.679236 -3.129524,3.781165 l 0.853178,-3.03289 -2.113567,2.02985 -2.332674,-6.87865 -1.3451372,7.183541 -2.6292969,-2.023132 1.3037964,3.421496 -3.3491496,-0.715202 2.6535848,2.339909 -5.2797811,0.856796 4.7335612,1.815393 -2.0422526,2.672705 3.4504354,-1.172022 0.070797,8.901266 4.3299676,-7.401099 2.300118,2.439128 -0.752925,-3.058728 4.840014,1.60817 -3.293339,-3.723287 5.720581,-1.481563 -5.007963,-1.546676 3.362069,-2.946073 -1.796273,0.364835 c 0.644225,-0.760063 1.21648,-1.596224 1.608688,-2.503206 1.767677,-4.087757 1.478207,-8.542249 1.586466,-12.115023 0.05413,-1.786386 0.210069,-3.345525 0.634587,-4.486031 0.424516,-1.1405063 1.013461,-1.8689992 2.237589,-2.3657468 1.262101,-0.5121566 2.25829,-0.4474432 3.198771,-0.093534 0.94048,0.3539089 1.816757,1.050814 2.551783,1.8598348 0.494098,0.54384 0.914002,1.124121 1.256254,1.656746 a 17.023774,16.809582 89.238382 0 0 -2.175061,1.619023 l 2.551782,4.341337 A 16.561075,16.561079 0 0 0 25.734863,29.287101 16.561075,16.561079 0 0 0 42.29561,45.848364 16.561075,16.561079 0 0 0 58.856873,29.287101 16.561075,16.561079 0 0 0 42.29561,12.726355 a 16.561075,16.561079 0 0 0 -4.448308,0.6196 L 35.345129,9.0888509 A 17.023774,16.809582 89.238382 0 0 32.86156,9.9683838 C 32.44228,9.3014666 31.90961,8.5539954 31.262174,7.8413818 30.361153,6.8496531 29.223374,5.8989825 27.80037,5.3634969 27.088869,5.0957541 26.303993,4.9455921 25.475964,4.9516357 Z" />
      <g
         id="g80233"
         transform="matrix(0.46951868,0,0,0.46951876,-12.831255,-18.720308)"
         style="display:inline">
        <g
           id="g30638"
           transform="translate(31.75,5.0270833)">
          <path
             style="color:#000000;fill:#f0b17b;fill-opacity:1;stroke:#640000;stroke-width:4;stroke-linejoin:round;stroke-dasharray:none;stroke-opacity:1;paint-order:stroke fill markers"
             d="m 49.837891,45.390625 c -1.763571,0.01287 -3.618715,0.358834 -5.501954,1.123047 -3.847353,1.561245 -6.312861,4.538979 -7.574218,7.927734 -1.261357,3.388755 -1.541695,7.174499 -1.66211,11.148438 -0.240829,7.947877 0.171963,16.701331 -2.970703,23.96875 -1.196481,2.766864 -4.278399,6.03213 -7.08789,8.417968 -2.809492,2.385838 -5.242188,3.935548 -5.242188,3.935548 l 2.683594,4.21875 c 0,0 2.71308,-1.72497 5.796875,-4.34375 3.083795,-2.618779 6.642517,-6.088726 8.439453,-10.244141 3.764875,-8.706279 3.148332,-18.193291 3.378906,-25.802735 0.115288,-3.804722 0.447407,-7.125588 1.351563,-9.554687 0.904155,-2.429099 2.158425,-3.981069 4.765625,-5.039063 2.688076,-1.090813 4.809424,-0.952989 6.8125,-0.199218 2.003076,0.75377 3.870059,2.23785 5.435547,3.960937 3.130975,3.446175 4.898437,7.605469 4.898437,7.605469 l 4.615234,-1.923828 c 0,0 -1.976382,-4.820469 -5.814453,-9.044922 -1.919035,-2.112227 -4.342273,-4.136844 -7.373047,-5.277344 -1.515386,-0.57025 -3.187601,-0.889825 -4.951171,-0.876953 z"
             id="path50158" />
          <path
             id="path57616"
             style="color:#000000;fill:#c57b54;fill-opacity:1;stroke:none;stroke-width:4;stroke-linejoin:round;stroke-dasharray:none;stroke-opacity:1;paint-order:stroke fill markers"
             d="m 67.794828,60.666064 c -0.04277,-0.08505 -0.07009,-0.14579 -0.116788,-0.236678 -0.09163,-0.178353 -0.190945,-0.367551 -0.297657,-0.566373 -0.106711,-0.198823 -0.220883,-0.407088 -0.342614,-0.623735 -0.121732,-0.216646 -0.250878,-0.441518 -0.387574,-0.673344 -0.136696,-0.231826 -0.280927,-0.470841 -0.432531,-0.715202 -0.151605,-0.24436 -0.310517,-0.494541 -0.476974,-0.748791 -0.166457,-0.25425 -0.340678,-0.512618 -0.521932,-0.774113 -0.181253,-0.261495 -0.369863,-0.526104 -0.565857,-0.7922 -0.195994,-0.266095 -0.399103,-0.53345 -0.609782,-0.801501 -0.210678,-0.268051 -0.428917,-0.536723 -0.654223,-0.804085 -0.225307,-0.267363 -0.457753,-0.53334 -0.697632,-0.797368 -0.11994,-0.132014 -0.241965,-0.264189 -0.365869,-0.395325 -0.123904,-0.131135 -0.249836,-0.261323 -0.377755,-0.39119 -0.127919,-0.129867 -0.257656,-0.259363 -0.38964,-0.387573 -0.131984,-0.128211 -0.265943,-0.255208 -0.402043,-0.381372 -0.1361,-0.126165 -0.274179,-0.251441 -0.414445,-0.375171 -0.140266,-0.123731 -0.282882,-0.245996 -0.427364,-0.366903 -0.144482,-0.120907 -0.291017,-0.240423 -0.439766,-0.358118 -0.14875,-0.117694 -0.299619,-0.233689 -0.452686,-0.347782 -0.153067,-0.114093 -0.30817,-0.226311 -0.465605,-0.336414 -0.157434,-0.110102 -0.317187,-0.217771 -0.47904,-0.323494 -0.161853,-0.105724 -0.326155,-0.20962 -0.492477,-0.310575 -0.166322,-0.100956 -0.334554,-0.199274 -0.505395,-0.295073 -0.170841,-0.0958 -0.343937,-0.1888 -0.519348,-0.279053 -0.175411,-0.09025 -0.35327,-0.177682 -0.533301,-0.261999 -0.180031,-0.08432 -0.362551,-0.165402 -0.547253,-0.243396 -0.184703,-0.07799 -0.371783,-0.152995 -0.561207,-0.224276 -0.189423,-0.07128 -0.380962,-0.138767 -0.575158,-0.202055 -0.194196,-0.06329 -0.390915,-0.122275 -0.589628,-0.17725 -0.198714,-0.05498 -0.399573,-0.105586 -0.602548,-0.151929 -0.202974,-0.04634 -0.407968,-0.08818 -0.614949,-0.125573 -0.206981,-0.03739 -0.416105,-0.07058 -0.626835,-0.0987 -0.210731,-0.02812 -0.422946,-0.05123 -0.637171,-0.06976 -0.214224,-0.01853 -0.430559,-0.0322 -0.648022,-0.04082 -0.217463,-0.0086 -0.436361,-0.01246 -0.656808,-0.01085 -0.220446,0.0016 -0.442408,0.0085 -0.665592,0.02067 -0.223184,0.01218 -0.44767,0.02962 -0.673344,0.05271 -0.225673,0.02309 -0.452146,0.05197 -0.680062,0.0863 -0.227915,0.03433 -0.45687,0.0745 -0.686779,0.120406 -0.22991,0.04591 -0.46081,0.09773 -0.692465,0.155546 -0.231655,0.05781 -0.464479,0.121152 -0.697632,0.191203 -0.233152,0.07005 -0.466846,0.146821 -0.701249,0.229444 -0.234402,0.08262 -0.469462,0.171123 -0.704866,0.26665 -0.12023,0.04879 -0.239031,0.09937 -0.356568,0.150895 -0.117536,0.05152 -0.233445,0.104447 -0.348299,0.158647 -0.114853,0.0542 -0.228366,0.109585 -0.340547,0.166398 -0.112182,0.05681 -0.223276,0.114785 -0.332797,0.174149 -0.10952,0.05936 -0.217657,0.120047 -0.324528,0.181902 -0.10687,0.06185 -0.212545,0.124852 -0.316776,0.189135 -0.208463,0.128568 -0.411811,0.26206 -0.609782,0.399976 -0.197971,0.137915 -0.390694,0.280075 -0.578259,0.426847 -0.187566,0.146773 -0.36949,0.298064 -0.546737,0.453202 -0.177247,0.155139 -0.349749,0.314477 -0.516764,0.477491 -0.167016,0.163013 -0.328888,0.32983 -0.485759,0.500228 -0.15687,0.170397 -0.308457,0.344124 -0.455269,0.521415 -0.146813,0.177291 -0.288973,0.357876 -0.425814,0.541569 -0.136841,0.183693 -0.268368,0.370568 -0.395325,0.560172 -0.126956,0.189605 -0.249227,0.382201 -0.366386,0.577226 -0.117158,0.195025 -0.229483,0.392774 -0.33693,0.592729 -0.107447,0.199954 -0.210168,0.402288 -0.307991,0.606681 -0.09782,0.204393 -0.190768,0.410743 -0.279053,0.619084 -0.08829,0.20834 -0.171796,0.418655 -0.250631,0.630452 -0.07884,0.211797 -0.153938,0.424907 -0.225309,0.639754 -0.07137,0.214848 -0.13878,0.43126 -0.203089,0.649056 -0.06431,0.217796 -0.125288,0.437199 -0.182934,0.657841 -0.05765,0.220643 -0.111912,0.442722 -0.163298,0.66611 -0.05139,0.223387 -0.09969,0.44783 -0.14521,0.67386 -0.04553,0.22603 -0.08861,0.453558 -0.128675,0.682129 -0.04007,0.228571 -0.07713,0.458354 -0.112138,0.689364 -0.03501,0.231009 -0.06783,0.463252 -0.09819,0.696598 -0.03035,0.233346 -0.05866,0.467735 -0.08475,0.703316 -0.02609,0.235582 -0.05011,0.47232 -0.07235,0.710035 -0.02224,0.237714 -0.04271,0.47649 -0.0615,0.716235 -0.01879,0.239745 -0.03543,0.480245 -0.05116,0.72192 -0.03146,0.483348 -0.05741,0.970439 -0.07906,1.460892 -0.02165,0.490453 -0.03921,0.984305 -0.05426,1.481047 -0.01505,0.496742 -0.02778,0.996657 -0.03876,1.499133 -0.01097,0.502476 -0.01999,1.007545 -0.02894,1.514636 -0.0179,1.014183 -0.03419,2.036417 -0.05633,3.062346 -0.01107,0.512964 -0.02355,1.026768 -0.03876,1.540991 -0.01521,0.514223 -0.03285,1.028696 -0.05426,1.543058 -0.02141,0.514362 -0.04682,1.028643 -0.07648,1.542025 -0.02966,0.513383 -0.0639,1.02609 -0.10387,1.537374 -0.03997,0.511284 -0.08565,1.021039 -0.137976,1.529106 -0.02616,0.254033 -0.05356,0.507658 -0.0832,0.760677 -0.02964,0.253019 -0.06119,0.505711 -0.09457,0.757576 -0.03337,0.251865 -0.06857,0.502871 -0.105936,0.753443 -0.03736,0.250571 -0.07724,0.500687 -0.118856,0.749825 -0.04161,0.249137 -0.08514,0.49761 -0.131258,0.745174 -0.04612,0.247563 -0.09434,0.494156 -0.145211,0.740006 -0.05087,0.24585 -0.104305,0.490842 -0.160197,0.734839 -0.05589,0.243997 -0.114533,0.487151 -0.1757,0.729155 -0.06117,0.242003 -0.125021,0.483083 -0.19172,0.722953 -0.0667,0.23987 -0.136286,0.478638 -0.208772,0.716235 -0.07249,0.237597 -0.147812,0.473816 -0.226343,0.709001 -0.07853,0.235184 -0.160113,0.469134 -0.244946,0.701766 -0.08483,0.232631 -0.173191,0.464075 -0.264584,0.694014 -0.09139,0.229939 -0.186012,0.458123 -0.28422,0.68523 -0.07478,0.172929 -0.156997,0.348029 -0.24598,0.524516 -0.08898,0.176486 -0.184671,0.354446 -0.286804,0.533817 -0.102133,0.179371 -0.2103,0.359986 -0.324528,0.541569 -0.114229,0.181583 -0.234397,0.364132 -0.359668,0.547254 -0.125271,0.183121 -0.255931,0.366882 -0.391191,0.55087 -0.135259,0.183988 -0.275418,0.36824 -0.419612,0.552421 -0.144194,0.184182 -0.292342,0.368202 -0.444418,0.551905 -0.152075,0.183702 -0.307735,0.367287 -0.466638,0.549837 -0.158903,0.18255 -0.321081,0.364461 -0.485758,0.545186 -0.164677,0.180726 -0.331864,0.360241 -0.501262,0.538469 -0.169397,0.178228 -0.341116,0.355142 -0.51418,0.5302 -0.173064,0.175058 -0.347805,0.348133 -0.523482,0.519348 -0.175678,0.171215 -0.35193,0.340247 -0.529167,0.506946 -0.177237,0.166699 -0.355042,0.330966 -0.532784,0.492476 -0.177742,0.16151 -0.35559,0.320291 -0.532784,0.47594 -0.177195,0.155649 -0.354091,0.308222 -0.529684,0.457337 -0.351186,0.29823 -0.696065,0.583499 -1.031461,0.854209 -0.335396,0.27071 -0.660976,0.527 -0.972551,0.7674 -0.311574,0.24039 -0.609628,0.46501 -0.889351,0.67231 -0.279723,0.20729 -0.541508,0.39702 -0.781348,0.56844 -0.23984,0.17141 -0.457646,0.32459 -0.649572,0.45733 -0.191927,0.13274 -0.357529,0.24513 -0.49351,0.33642 -0.05493,0.0369 -0.0409,0.0265 -0.08578,0.0563 l 1.81591,2.85461 c 0,0 2.71327,-1.72514 5.797062,-4.34392 3.083792,-2.618776 6.642344,-6.088924 8.439278,-10.244335 3.764871,-8.706271 3.148548,-18.193123 3.379122,-25.80256 0.115288,-3.804718 0.447183,-7.125359 1.351339,-9.554455 0.904154,-2.429097 2.158403,-3.981493 4.7656,-5.039486 2.688073,-1.090812 4.80943,-0.952724 6.812504,-0.198954 2.003074,0.753769 3.870358,2.237913 5.435844,3.960998 3.130972,3.446172 4.898409,7.605221 4.898409,7.605221 z" />
          <path
             style="fill:none;fill-opacity:1;stroke:#640000;stroke-width:2;stroke-linejoin:round;stroke-dasharray:none;stroke-opacity:1;paint-order:stroke fill markers"
             d="m 54.702603,52.519791 c 0,0 1.058334,-1.852083 2.645834,-2.711979 1.5875,-0.859896 3.439583,-1.190625 3.439583,-1.190625"
             id="path56140" />
          <path
             style="fill:none;fill-opacity:1;stroke:#640000;stroke-width:2;stroke-linejoin:round;stroke-dasharray:none;stroke-opacity:1;paint-order:stroke fill markers"
             d="m 48.815624,51.329166 c 0,0 0.434397,-1.621814 1.719792,-3.175 1.5875,-1.918229 4.564062,-2.711979 4.564062,-2.711979"
             id="path56142" />
          <path
             style="fill:none;fill-opacity:1;stroke:#640000;stroke-width:2;stroke-linejoin:round;stroke-dasharray:none;stroke-opacity:1;paint-order:stroke fill markers"
             d="m 43.590104,53.776562 c 0,0 -1.238226,-1.325087 -1.455208,-3.439584 -0.263683,-2.569583 0.727603,-3.968749 0.727603,-3.968749"
             id="path56144" />
          <path
             style="fill:none;fill-opacity:1;stroke:#640000;stroke-width:2;stroke-linejoin:round;stroke-dasharray:none;stroke-opacity:1;paint-order:stroke fill markers"
             d="m 41.605729,58.803645 c 0,0 -1.966974,-0.431956 -3.175,-2.38125 -1.355786,-2.187723 -1.058334,-5.225521 -1.058334,-5.225521"
             id="path56146" />
          <path
             style="fill:none;fill-opacity:1;stroke:#640000;stroke-width:2;stroke-linejoin:round;stroke-dasharray:none;stroke-opacity:1;paint-order:stroke fill markers"
             d="m 40.94427,64.75677 c 0,0 -0.530848,0.448107 -3.175,-0.859896 -2.370326,-1.172547 -3.175,-2.447396 -3.175,-2.447396"
             id="path56148" />
          <path
             style="fill:none;fill-opacity:1;stroke:#640000;stroke-width:2;stroke-linejoin:round;stroke-dasharray:none;stroke-opacity:1;paint-order:stroke fill markers"
             d="m 41.274999,69.783853 c 0,0 -1.321441,0.89417 -3.836458,0.79375 -2.192374,-0.08754 -3.241146,-0.926041 -3.241146,-0.926041"
             id="path56150" />
          <path
             style="fill:none;fill-opacity:1;stroke:#640000;stroke-width:2;stroke-linejoin:round;stroke-dasharray:none;stroke-opacity:1;paint-order:stroke fill markers"
             d="m 40.679687,76.266145 c 0,0 -0.991437,0.831581 -3.373437,0.859896 -2.316143,0.02753 -3.571875,-0.727604 -3.571875,-0.727604"
             id="path56152" />
          <path
             style="fill:none;fill-opacity:1;stroke:#640000;stroke-width:2;stroke-linejoin:round;stroke-dasharray:none;stroke-opacity:1;paint-order:stroke fill markers"
             d="m 39.885937,85.195832 c 0,0 -1.330796,0.836693 -3.902604,-0.198437 -2.799211,-1.126658 -2.976563,-2.050521 -2.976563,-2.050521"
             id="path56154" />
          <path
             style="fill:none;fill-opacity:1;stroke:#640000;stroke-width:2;stroke-linejoin:round;stroke-dasharray:none;stroke-opacity:1;paint-order:stroke fill markers"
             d="m 37.173958,93.464061 c 0,0 -1.959467,-0.409169 -3.373438,-1.785937 -1.77639,-1.729651 -2.248958,-3.770313 -2.248958,-3.770313"
             id="path56156" />
          <path
             style="fill:none;fill-opacity:1;stroke:#640000;stroke-width:2;stroke-linejoin:round;stroke-dasharray:none;stroke-opacity:1;paint-order:stroke fill markers"
             d="m 33.072916,99.020311 c 0,0 -1.700915,-0.625155 -2.910416,-2.248958 -1.14026,-1.530844 -1.719792,-3.439583 -1.719792,-3.439583"
             id="path56158" />
          <path
             style="fill:none;fill-opacity:1;stroke:#640000;stroke-width:2;stroke-linejoin:round;stroke-dasharray:none;stroke-opacity:1;paint-order:stroke fill markers"
             d="m 28.111979,103.05521 c 0,0 -2.294658,-0.21216 -3.571875,-1.91823 -0.956748,-1.278001 -1.389063,-2.910419 -1.389063,-2.910419"
             id="path56160" />
        </g>
        <g
           id="g61254"
           transform="translate(31.75,5.0270833)">
          <path
             id="circle27365"
             style="display:inline;fill:#674947;fill-opacity:1;stroke:#640000;stroke-width:4.08581;stroke-linejoin:round;stroke-dasharray:none;stroke-opacity:1;paint-order:stroke fill markers"
             d="m 70.85754,54.201596 a 36.257921,35.801733 89.238373 0 0 -14.35172,7.683523 l 6.564415,11.167776 14.52936,-7.38201 z" />
          <path
             id="path30633"
             style="display:inline;fill:#686866;fill-opacity:1;stroke:none;stroke-width:4.08581;stroke-linejoin:round;stroke-dasharray:none;stroke-opacity:1;paint-order:stroke fill markers"
             d="m 58.285331,60.425769 6.372221,10.841199 12.498462,-6.35 -6.298324,-10.715625 a 36.257921,35.801733 89.238373 0 0 -12.572359,6.224426 z" />
          <path
             id="path50100"
             style="display:inline;fill:#b4b4b2;fill-opacity:1;stroke:none;stroke-width:4.086;stroke-linejoin:round;stroke-dasharray:none;stroke-opacity:1;paint-order:stroke fill markers"
             d="m 70.85769,54.201343 a 36.257921,35.801733 89.238373 0 0 -14.352095,7.683768 l 0.239779,0.407728 a 36.257921,35.801733 89.238373 0 1 0.278536,-0.235645 36.257921,35.801733 89.238373 0 1 1.07952,-0.84491 36.257921,35.801733 89.238373 0 1 1.111043,-0.802535 36.257921,35.801733 89.238373 0 1 1.139983,-0.759126 36.257921,35.801733 89.238373 0 1 1.167887,-0.714686 36.257921,35.801733 89.238373 0 1 1.194242,-0.669209 36.257921,35.801733 89.238373 0 1 1.218014,-0.622185 36.257921,35.801733 89.238373 0 1 1.241268,-0.575158 36.257921,35.801733 89.238373 0 1 1.261421,-0.526583 36.257921,35.801733 89.238373 0 1 1.280542,-0.47749 36.257921,35.801733 89.238373 0 1 1.297596,-0.427881 36.257921,35.801733 89.238373 0 1 1.313098,-0.377755 l 6.384623,10.861869 0.886251,-0.450618 z" />
        </g>
        <g
           id="g25131"
           transform="translate(31.75,5.0270833)">
          <circle
             style="display:inline;fill:#674947;fill-opacity:1;stroke:#640000;stroke-width:4;stroke-dasharray:none;stroke-opacity:1;paint-order:stroke fill markers"
             id="path12412"
             cx="85.661674"
             cy="97.221558"
             r="35.272453" />
          <path
             id="circle19210"
             style="display:inline;fill:#686866;fill-opacity:1;stroke:none;stroke-width:2;stroke-dasharray:none;stroke-opacity:1;paint-order:normal"
             d="m 113.3383,119.07852 a 35.272453,35.272453 0 0 0 1.4671,-1.98748 35.272453,35.272453 0 0 0 1.40301,-2.23345 35.272453,35.272453 0 0 0 1.23248,-2.33164 35.272453,35.272453 0 0 0 1.05524,-2.41794 35.272453,35.272453 0 0 0 0.87074,-2.48977 35.272453,35.272453 0 0 0 0.68265,-2.54765 35.272453,35.272453 0 0 0 0.49041,-2.59209 35.272453,35.272453 0 0 0 0.29559,-2.621029 35.272453,35.272453 0 0 0 0.0987,-2.636015 35.272453,35.272453 0 0 0 -0.0119,-0.907955 35.272453,35.272453 0 0 0 -0.0351,-0.907955 35.272453,35.272453 0 0 0 -0.0584,-0.906405 35.272453,35.272453 0 0 0 -0.0816,-0.904337 35.272453,35.272453 0 0 0 -0.1049,-0.902271 35.272453,35.272453 0 0 0 -0.12816,-0.89917 35.272453,35.272453 0 0 0 -0.15141,-0.895552 35.272453,35.272453 0 0 0 -0.17415,-0.891419 35.272453,35.272453 0 0 0 -0.1974,-0.88625 35.272453,35.272453 0 0 0 -0.22015,-0.8816 35.272453,35.272453 0 0 0 -0.24236,-0.874882 35.272453,35.272453 0 0 0 -0.2651,-0.869198 35.272453,35.272453 0 0 0 -0.28732,-0.861446 35.272453,35.272453 0 0 0 -0.30954,-0.853695 35.272453,35.272453 0 0 0 -0.33125,-0.845943 35.272453,35.272453 0 0 0 -0.35295,-0.836641 35.272453,35.272453 0 0 0 -0.37465,-0.827857 35.272453,35.272453 0 0 0 -0.39533,-0.817521 35.272453,35.272453 0 0 0 -0.41651,-0.807186 35.272453,35.272453 0 0 0 -0.43718,-0.795817 35.272453,35.272453 0 0 0 -0.45734,-0.784965 35.272453,35.272453 0 0 0 -0.47749,-0.772563 35.272453,35.272453 0 0 0 -0.49764,-0.759643 35.272453,35.272453 0 0 0 -0.51677,-0.747241 35.272453,35.272453 0 0 0 -0.53536,-0.733289 35.272453,35.272453 0 0 0 -0.55449,-0.719336 35.272453,35.272453 0 0 0 -0.57309,-0.704866 35.272453,35.272453 0 0 0 -0.59067,-0.689881 35.272453,35.272453 0 0 0 -0.60823,-0.674894 35.272453,35.272453 0 0 0 -0.6258,-0.658358 35.272453,35.272453 0 0 0 -0.64182,-0.642338 35.272453,35.272453 0 0 0 -0.65887,-0.625285 35.272453,35.272453 0 0 0 -0.67438,-0.608231 35.272453,35.272453 0 0 0 -0.68988,-0.591179 35.272453,35.272453 0 0 0 -0.70487,-0.572574 35.272453,35.272453 0 0 0 -0.71933,-0.554489 35.272453,35.272453 0 0 0 -0.73329,-0.535884 35.272453,35.272453 0 0 0 -0.74724,-0.516764 35.272453,35.272453 0 0 0 -0.76016,-0.497128 35.272453,35.272453 0 0 0 -0.77257,-0.47749 35.272453,35.272453 0 0 0 -0.78445,-0.457336 35.272453,35.272453 0 0 0 -0.79633,-0.437183 35.272453,35.272453 0 0 0 -0.80719,-0.416512 35.272453,35.272453 0 0 0 -0.81752,-0.395842 35.272453,35.272453 0 0 0 -0.827336,-0.374137 35.272453,35.272453 0 0 0 -0.836641,-0.35295 35.272453,35.272453 0 0 0 -0.845944,-0.331246 35.272453,35.272453 0 0 0 -0.853694,-0.309542 35.272453,35.272453 0 0 0 -0.861963,-0.287321 35.272453,35.272453 0 0 0 -0.868681,-0.2651 35.272453,35.272453 0 0 0 -0.875399,-0.242879 35.272453,35.272453 0 0 0 -0.881083,-0.219625 35.272453,35.272453 0 0 0 -0.886768,-0.197404 35.272453,35.272453 0 0 0 -0.890901,-0.174149 35.272453,35.272453 0 0 0 -0.89607,-0.151412 35.272453,35.272453 0 0 0 -0.899169,-0.128158 35.272453,35.272453 0 0 0 -0.901754,-0.104903 35.272453,35.272453 0 0 0 -0.904855,-0.08217 35.272453,35.272453 0 0 0 -0.906404,-0.05839 35.272453,35.272453 0 0 0 -0.907438,-0.03514 35.272453,35.272453 0 0 0 -0.908472,-0.01137 35.272453,35.272453 0 0 0 -2.635498,0.0987 35.272453,35.272453 0 0 0 -2.621545,0.295073 35.272453,35.272453 0 0 0 -2.591574,0.490409 35.272453,35.272453 0 0 0 -2.547648,0.682646 35.272453,35.272453 0 0 0 -2.48977,0.871264 35.272453,35.272453 0 0 0 -2.41794,1.054716 35.272453,35.272453 0 0 0 -2.332158,1.232483 35.272453,35.272453 0 0 0 -2.233455,1.403532 35.272453,35.272453 0 0 0 -1.986959,1.466061 35.272453,35.272453 0 0 0 -7.594885,21.856547 35.272453,35.272453 0 0 0 35.272265,35.27278 35.272453,35.272453 0 0 0 21.856029,-7.59488 z" />
          <ellipse
             style="fill:#868684;fill-opacity:1;stroke:none;stroke-width:3.08839;stroke-dasharray:none;stroke-opacity:1;paint-order:normal"
             id="path16148"
             cx="101.74828"
             cy="52.276096"
             rx="7.561285"
             ry="4.0573196"
             transform="matrix(0.97903186,0.20370719,-0.16209106,0.9867758,0,0)" />
          <ellipse
             style="fill:#868684;fill-opacity:1;stroke:none;stroke-width:1.77715;stroke-dasharray:none;stroke-opacity:1;paint-order:normal"
             id="ellipse22130"
             cx="131.16466"
             cy="4.9752717"
             rx="4.3266306"
             ry="2.3478227"
             transform="matrix(0.81766382,0.57569599,-0.59177591,0.80610252,0,0)" />
          <path
             id="path47899"
             style="display:inline;fill:#b4b4b2;fill-opacity:1;stroke:none;stroke-width:4;stroke-dasharray:none;stroke-opacity:1;paint-order:stroke fill markers"
             d="m 85.661438,61.94919 a 35.272453,35.272453 0 0 0 -25.049634,10.474296 35.272453,35.272453 0 0 1 1.999361,-1.720825 35.272453,35.272453 0 0 1 2.122351,-1.566313 35.272453,35.272453 0 0 1 2.233456,-1.403531 35.272453,35.272453 0 0 1 2.332157,-1.232483 35.272453,35.272453 0 0 1 2.41794,-1.054716 35.272453,35.272453 0 0 1 2.489771,-0.871265 35.272453,35.272453 0 0 1 2.547648,-0.682646 35.272453,35.272453 0 0 1 2.591573,-0.490409 35.272453,35.272453 0 0 1 2.621546,-0.295072 35.272453,35.272453 0 0 1 2.635498,-0.0987 35.272453,35.272453 0 0 1 0.908471,0.01137 35.272453,35.272453 0 0 1 0.907438,0.03514 35.272453,35.272453 0 0 1 0.906405,0.05839 35.272453,35.272453 0 0 1 0.904854,0.08217 35.272453,35.272453 0 0 1 0.901754,0.104903 35.272453,35.272453 0 0 1 0.89917,0.128158 35.272453,35.272453 0 0 1 0.896069,0.151412 35.272453,35.272453 0 0 1 0.890902,0.17415 35.272453,35.272453 0 0 1 0.886768,0.197403 35.272453,35.272453 0 0 1 0.881083,0.219625 35.272453,35.272453 0 0 1 0.875399,0.24288 35.272453,35.272453 0 0 1 0.86868,0.2651 35.272453,35.272453 0 0 1 0.861963,0.287321 35.272453,35.272453 0 0 1 0.853695,0.309541 35.272453,35.272453 0 0 1 0.845943,0.331246 35.272453,35.272453 0 0 1 0.836642,0.35295 35.272453,35.272453 0 0 1 0.827339,0.374138 35.272453,35.272453 0 0 1 0.81752,0.395841 35.272453,35.272453 0 0 1 0.80719,0.416512 35.272453,35.272453 0 0 1 0.79633,0.437183 35.272453,35.272453 0 0 1 0.78445,0.457336 35.272453,35.272453 0 0 1 0.77256,0.477491 35.272453,35.272453 0 0 1 0.76016,0.497127 35.272453,35.272453 0 0 1 0.74724,0.516764 35.272453,35.272453 0 0 1 0.73329,0.535885 35.272453,35.272453 0 0 1 0.71934,0.554488 35.272453,35.272453 0 0 1 0.70486,0.572575 35.272453,35.272453 0 0 1 0.68989,0.591178 35.272453,35.272453 0 0 1 0.67437,0.608232 35.272453,35.272453 0 0 1 0.65888,0.625285 35.272453,35.272453 0 0 1 0.64182,0.642338 35.272453,35.272453 0 0 1 0.6258,0.658357 35.272453,35.272453 0 0 1 0.60823,0.674895 35.272453,35.272453 0 0 1 0.59066,0.68988 35.272453,35.272453 0 0 1 0.57309,0.704867 35.272453,35.272453 0 0 1 0.55449,0.719335 35.272453,35.272453 0 0 1 0.53537,0.733289 35.272453,35.272453 0 0 1 0.51677,0.747241 35.272453,35.272453 0 0 1 0.49764,0.759644 35.272453,35.272453 0 0 1 0.47749,0.772562 35.272453,35.272453 0 0 1 0.45734,0.784965 35.272453,35.272453 0 0 1 0.43718,0.795818 35.272453,35.272453 0 0 1 0.41651,0.807185 35.272453,35.272453 0 0 1 0.39533,0.817522 35.272453,35.272453 0 0 1 0.37465,0.827856 35.272453,35.272453 0 0 1 0.35295,0.836641 35.272453,35.272453 0 0 1 0.33125,0.845944 35.272453,35.272453 0 0 1 0.30954,0.853694 35.272453,35.272453 0 0 1 0.28732,0.861446 35.272453,35.272453 0 0 1 0.2651,0.869198 35.272453,35.272453 0 0 1 0.24236,0.874882 35.272453,35.272453 0 0 1 0.22014,0.8816 35.272453,35.272453 0 0 1 0.19741,0.886251 35.272453,35.272453 0 0 1 0.17415,0.891418 35.272453,35.272453 0 0 1 0.15141,0.895553 35.272453,35.272453 0 0 1 0.12816,0.89917 35.272453,35.272453 0 0 1 0.1049,0.90227 35.272453,35.272453 0 0 1 0.0816,0.904338 35.272453,35.272453 0 0 1 0.0584,0.906404 35.272453,35.272453 0 0 1 0.0351,0.907955 35.272453,35.272453 0 0 1 0.0119,0.907955 35.272453,35.272453 0 0 1 -0.0987,2.636007 35.272453,35.272453 0 0 1 -0.29559,2.62103 35.272453,35.272453 0 0 1 -0.49041,2.59209 35.272453,35.272453 0 0 1 -0.68265,2.54765 35.272453,35.272453 0 0 1 -0.87075,2.48977 35.272453,35.272453 0 0 1 -1.05523,2.41794 35.272453,35.272453 0 0 1 -1.23248,2.33164 35.272453,35.272453 0 0 1 -1.40302,2.23346 35.272453,35.272453 0 0 1 -1.56683,2.12235 35.272453,35.272453 0 0 1 -1.72031,1.99936 35.272453,35.272453 0 0 0 10.4743,-25.04963 35.272453,35.272453 0 0 0 -35.272712,-35.27227 z" />
        </g>
        <g
           id="g68194"
           transform="rotate(-3.3800497,41.937085,83.541021)">
          <path
             style="fill:#ff3401;fill-opacity:1;stroke:#640000;stroke-width:2;stroke-linejoin:miter;stroke-dasharray:none;stroke-opacity:1;paint-order:markers fill stroke"
             d="m 45.649633,101.40206 3.762526,-15.104561 4.0952,14.917471 4.748869,-4.049473 -2.503805,7.229983 12.032032,-1.71395 -7.517259,5.84125 10.452319,3.91751 -12.34785,2.43215 6.534139,8.32981 -10.088824,-4.02677 1.216883,6.59706 -4.584481,-5.47453 -10.134885,15.19179 0.967541,-18.93356 -7.483546,2.05797 4.677216,-5.42557 -9.835588,-4.45413 11.332299,-1.15853 -5.347744,-5.30819 7.031542,1.9406 -2.343311,-7.438154 z"
             id="path61438" />
          <path
             style="fill:#fdd734;fill-opacity:1;stroke:none;stroke-width:2;stroke-linejoin:miter;stroke-dasharray:none;stroke-opacity:1;paint-order:markers fill stroke"
             d="m 45.710107,104.63071 0.495119,2.44918 -1.958757,-0.15872 1.422942,2.53137 -7.222691,0.36851 5.425572,2.24506 -2.806329,2.80633 3.928861,-0.8419 -0.374176,10.91924 5.485068,-9.14189 2.295161,2.73451 -0.256964,-3.70303 7.443827,4.42965 -6.080381,-5.51911 8.231902,-1.59025 -7.483547,-3.3676 4.770761,-2.61924 -6.267472,0.8419 0.748356,-2.71279 -1.870887,1.30962 -2.057974,-10.383419 -1.403165,11.225319 z"
             id="path65178" />
        </g>
        <g
           id="g75115"
           transform="translate(1.9889564,2.9834345)">
          <path
             style="fill:none;fill-opacity:1;stroke:#ffffff;stroke-width:5;stroke-linecap:round;stroke-linejoin:miter;stroke-dasharray:none;stroke-opacity:1;paint-order:markers fill stroke"
             d="m 114.98841,108.33165 4.19303,7.26255"
             id="path69077" />
          <path
             style="fill:none;fill-opacity:1;stroke:#ffffff;stroke-width:5;stroke-linecap:round;stroke-linejoin:miter;stroke-dasharray:none;stroke-opacity:1;paint-order:markers fill stroke"
             d="m 120.22336,105.75324 4.19303,7.26255"
             id="path69079" />
          <path
             style="fill:none;fill-opacity:1;stroke:#ffffff;stroke-width:5;stroke-linecap:round;stroke-linejoin:miter;stroke-dasharray:none;stroke-opacity:1;paint-order:markers fill stroke"
             d="m 125.30205,102.94043 4.19303,7.26255"
             id="path69081" />
          <circle
             style="fill:#ffffff;fill-opacity:1;stroke:#ffffff;stroke-width:4.99999;stroke-linecap:round;stroke-linejoin:miter;stroke-dasharray:none;stroke-opacity:1;paint-order:markers fill stroke"
             id="path72819"
             cx="115.55957"
             cy="97.432579"
             r="14.845381" />
          <circle
             style="fill:#6d7a8a;fill-opacity:1;stroke:none;stroke-width:4.99999;stroke-linecap:round;stroke-linejoin:miter;stroke-dasharray:none;stroke-opacity:1;paint-order:markers fill stroke"
             id="path74379"
             cx="110.32463"
             cy="99.542198"
             r="3.9848127" />
          <circle
             style="fill:#6d7a8a;fill-opacity:1;stroke:none;stroke-width:4.99999;stroke-linecap:round;stroke-linejoin:miter;stroke-dasharray:none;stroke-opacity:1;paint-order:markers fill stroke"
             id="circle74381"
             cx="120.40385"
             cy="94.307243"
             r="3.9848127" />
        </g>
      </g>
    </g>
  </g>
</svg>
