<?xml version="1.0" encoding="UTF-8" standalone="no"?>
<svg
   version="1.1"
   x="0px"
   y="0px"
   viewBox="0 0 400 340"
   xml:space="preserve"
   id="svg111"
   sodipodi:docname="cc.svg"
   width="400"
   height="340"
   inkscape:version="1.2 (dc2aedaf03, 2022-05-15)"
   inkscape:export-filename="D:\Dropbox (CINI)\- CybersecNatLab - CyberChallenge.IT 2022 - Public\Comunicazione\Press-Kit\CCIT_Logo.png"
   inkscape:export-xdpi="368"
   inkscape:export-ydpi="368"
   xmlns:inkscape="http://www.inkscape.org/namespaces/inkscape"
   xmlns:sodipodi="http://sodipodi.sourceforge.net/DTD/sodipodi-0.dtd"
   xmlns="http://www.w3.org/2000/svg"
   xmlns:svg="http://www.w3.org/2000/svg"
   xmlns:rdf="http://www.w3.org/1999/02/22-rdf-syntax-ns#"
   xmlns:cc="http://creativecommons.org/ns#"
   xmlns:dc="http://purl.org/dc/elements/1.1/"><metadata
   id="metadata117"><rdf:RDF><cc:Work
       rdf:about=""><dc:format>image/svg+xml</dc:format><dc:type
         rdf:resource="http://purl.org/dc/dcmitype/StillImage" /></cc:Work></rdf:RDF></metadata><defs
   id="defs115">
		
		
		
		
		
		
		
		
		
		
		
		
		
		
		
		
		
		
		
		
		
		
		
		
		
		
		
		
		
		
		
		
		
		
		
		
		
	</defs><sodipodi:namedview
   pagecolor="#ffffff"
   bordercolor="#666666"
   borderopacity="1"
   objecttolerance="10"
   gridtolerance="10"
   guidetolerance="10"
   inkscape:pageopacity="0"
   inkscape:pageshadow="2"
   inkscape:window-width="1536"
   inkscape:window-height="889"
   id="namedview113"
   showgrid="false"
   fit-margin-top="0"
   fit-margin-left="0"
   fit-margin-right="0"
   fit-margin-bottom="0"
   inkscape:zoom="1.0842304"
   inkscape:cx="-53.033009"
   inkscape:cy="288.68403"
   inkscape:window-x="-8"
   inkscape:window-y="-8"
   inkscape:window-maximized="1"
   inkscape:current-layer="Logo"
   inkscape:document-rotation="0"
   inkscape:showpageshadow="2"
   inkscape:pagecheckerboard="0"
   inkscape:deskcolor="#d1d1d1" />
<style
   type="text/css"
   id="style2">
	.st0{fill:#1B4778;}
	.st1{fill:#FFFFFF;}
	.st2{display:none;}
	.st3{display:inline;fill:none;stroke:#C6C6C5;stroke-width:0.25;stroke-miterlimit:10;}
	.st4{display:inline;fill:#C6C6C5;}
	.st5{font-family:'GothamLight';}
	.st6{font-size:6px;}
	.st7{display:inline;}
	.st8{fill:none;stroke:#E20613;stroke-width:0.15;stroke-miterlimit:10;}
</style>
<g
   id="Sfondo"
   transform="translate(-24,-24)">
</g>
<g
   id="Italia"
   transform="translate(-24,-24)">
</g>
<g
   id="Livello_1"
   transform="translate(-24,-24)">
</g>
<g
   id="Logo"
   transform="translate(-24,-24)">
	<g
   id="g91916"
   transform="matrix(2.7550931,0,0,2.7550891,33.888125,-17.155459)"><path
     style="fill:#ffffff;fill-opacity:1;stroke:#ffffff;stroke-width:9;stroke-linecap:round;stroke-linejoin:round;stroke-miterlimit:17;stroke-dasharray:none;stroke-dashoffset:0;stroke-opacity:1;paint-order:stroke markers fill"
     d="m 77.01841,29.725956 c 8.932802,1.697136 25.38253,8.646507 29.40083,10.691212 1.30435,1.222826 2.30595,3.2668 2.6728,5.345604 0.0408,2.486413 -0.19326,43.367843 0,45.437645 -1.22283,4.279891 -6.42875,15.017803 -8.01842,16.036823 -1.100543,1.63043 -3.715165,4.16354 -5.3456,5.34561 -0.855978,0.89674 -12.792626,9.82192 -16.036812,10.6912 -2.986663,1.23708 -17.85714,0.94459 -21.382416,0 -2.990716,-0.80136 -14.569428,-9.06077 -16.036819,-10.6912 -1.88793,-1.70171 -4.26397,-4.22983 -5.345604,-5.34561 -1.717802,-2.54854 -6.513735,-10.074917 -8.018408,-16.036823 0,-4.565217 0,-45.437645 0,-45.437645 0.44837,-1.589674 1.023756,-2.754246 2.672802,-5.345604 2.305783,-1.210536 24.794853,-9.549908 29.400831,-10.691212 4.932065,-0.774457 10.248773,-0.652174 16.036816,0 z"
     id="path88110"
     sodipodi:nodetypes="ccccccccccccccc" /><rect
     x="60.981594"
     y="29.725956"
     class="st0"
     width="16.036816"
     height="2.6728024"
     id="rect7"
     style="stroke-width:0.890935" /><rect
     x="47.61758"
     y="35.071564"
     class="st0"
     width="42.764839"
     height="2.6728024"
     id="rect9"
     style="stroke-width:0.890935" /><rect
     x="31.580763"
     y="40.417168"
     class="st0"
     width="26.728025"
     height="2.6728024"
     id="rect11"
     style="stroke-width:0.890935" /><rect
     x="69"
     y="40.417168"
     class="st0"
     width="37.419235"
     height="2.6728024"
     id="rect13"
     style="stroke-width:0.890935" /><rect
     x="74.345604"
     y="45.762772"
     class="st0"
     width="34.746433"
     height="2.6728024"
     id="rect15"
     style="stroke-width:0.890935" /><rect
     x="74.345604"
     y="67.145187"
     class="st0"
     width="34.746433"
     height="2.6728024"
     id="rect17"
     style="stroke-width:0.890935" /><rect
     x="52.963184"
     y="93.873215"
     class="st0"
     width="34.746433"
     height="2.6728024"
     id="rect19"
     style="stroke-width:0.890935" /><rect
     x="50.290382"
     y="115.25564"
     class="st0"
     width="37.419235"
     height="2.6728024"
     id="rect21"
     style="stroke-width:0.890935" /><rect
     x="34.253567"
     y="99.218826"
     class="st0"
     width="53.456051"
     height="2.6728024"
     id="rect23"
     style="stroke-width:0.890935" /><rect
     x="79.602119"
     y="72.490791"
     class="st0"
     width="29.489922"
     height="2.6728024"
     id="rect25"
     style="stroke-width:0.890935" /><rect
     x="87.709618"
     y="77.836403"
     class="st0"
     width="21.38242"
     height="2.6728024"
     id="rect27"
     style="stroke-width:0.890935" /><rect
     x="98.400833"
     y="83.182007"
     class="st0"
     width="10.69121"
     height="2.6728024"
     id="rect29"
     style="stroke-width:0.890935" /><rect
     x="69"
     y="51.108376"
     class="st0"
     width="40.092037"
     height="2.6728024"
     id="rect31"
     style="stroke-width:0.890935" /><rect
     x="71.672806"
     y="61.799583"
     class="st0"
     width="37.419235"
     height="2.6728024"
     id="rect33"
     style="stroke-width:0.890935" /><rect
     x="66.327194"
     y="56.453979"
     class="st0"
     width="42.764839"
     height="2.6728024"
     id="rect35"
     style="stroke-width:0.890935" /><rect
     x="28.907961"
     y="45.762772"
     class="st0"
     width="13.364013"
     height="2.6728024"
     id="rect37"
     style="stroke-width:0.890935" /><rect
     x="28.907961"
     y="61.799583"
     class="st0"
     width="10.69121"
     height="2.6728024"
     id="rect39"
     style="stroke-width:0.890935" /><rect
     x="44.944775"
     y="61.799583"
     class="st0"
     width="8.0184078"
     height="2.6728024"
     id="rect41"
     style="stroke-width:0.890935" /><rect
     x="93.055222"
     y="88.527611"
     class="st0"
     width="5.3456049"
     height="2.6728024"
     id="rect43"
     style="stroke-width:0.890935" /><rect
     x="93.055222"
     y="99.218826"
     class="st0"
     width="10.69121"
     height="2.6728024"
     id="rect45"
     style="stroke-width:0.890935" /><rect
     x="103.74644"
     y="88.527611"
     class="st0"
     width="5.3456049"
     height="2.6728024"
     id="rect47"
     style="stroke-width:0.890935" /><rect
     x="28.907961"
     y="56.453979"
     class="st0"
     width="8.0184078"
     height="2.6728024"
     id="rect49"
     style="stroke-width:0.890935" /><rect
     x="28.907961"
     y="51.108376"
     class="st0"
     width="8.0184078"
     height="2.6728024"
     id="rect51"
     style="stroke-width:0.890935" /><rect
     x="28.907961"
     y="67.145187"
     class="st0"
     width="26.728025"
     height="2.6728024"
     id="rect53"
     style="stroke-width:0.890935" /><rect
     x="52.963184"
     y="88.527611"
     class="st0"
     width="29.400827"
     height="2.6728024"
     id="rect55"
     style="stroke-width:0.890935" /><rect
     x="58.308792"
     y="120.60124"
     class="st0"
     width="21.38242"
     height="2.6728024"
     id="rect57"
     style="stroke-width:0.890935" /><rect
     x="52.963184"
     y="83.182007"
     class="st0"
     width="21.38242"
     height="2.6728024"
     id="rect59"
     style="stroke-width:0.890935" /><rect
     x="36.926369"
     y="104.56444"
     class="st0"
     width="29.400827"
     height="2.6728024"
     id="rect61"
     style="stroke-width:0.890935" /><rect
     x="42.271973"
     y="109.91004"
     class="st0"
     width="32.073631"
     height="2.6728024"
     id="rect63"
     style="stroke-width:0.890935" /><rect
     x="28.907961"
     y="72.490791"
     class="st0"
     width="32.073631"
     height="2.6728024"
     id="rect65"
     style="stroke-width:0.890935" /><rect
     x="28.907961"
     y="77.836403"
     class="st0"
     width="37.419235"
     height="2.6728024"
     id="rect67"
     style="stroke-width:0.890935" /><rect
     x="28.907961"
     y="83.182007"
     class="st0"
     width="18.709618"
     height="2.6728024"
     id="rect69"
     style="stroke-width:0.890935" /><rect
     x="28.907961"
     y="88.527611"
     class="st0"
     width="16.036816"
     height="2.6728024"
     id="rect71"
     style="stroke-width:0.890935" /><rect
     x="95.72802"
     y="93.873215"
     class="st0"
     width="10.69121"
     height="2.6728024"
     id="rect73"
     style="stroke-width:0.890935" /><rect
     x="85.036812"
     y="109.91004"
     class="st0"
     width="10.69121"
     height="2.6728024"
     id="rect75"
     style="stroke-width:0.890935" /><rect
     x="85.036812"
     y="104.56444"
     class="st0"
     width="16.036816"
     height="2.6728024"
     id="rect77"
     style="stroke-width:0.890935" /><rect
     x="31.491671"
     y="93.873215"
     class="st0"
     width="13.364013"
     height="2.6728024"
     id="rect79"
     style="stroke-width:0.890935" /></g>
	
</g>
<g
   id="Light"
   transform="translate(-24,-24)">
</g>
<g
   id="Ingombro"
   class="st2"
   transform="translate(-24,-24)">
	<rect
   x="24"
   class="st3"
   width="90"
   height="24"
   id="rect87"
   y="0" />
	<rect
   x="0"
   transform="rotate(180,12,12)"
   class="st3"
   width="24"
   height="24"
   id="rect89"
   y="0" />
	<rect
   x="0"
   y="132"
   transform="rotate(180,12,144)"
   class="st3"
   width="24"
   height="24"
   id="rect91" />
	<rect
   x="24"
   y="132"
   transform="rotate(180,69,144)"
   class="st3"
   width="90"
   height="24"
   id="rect93" />
	<rect
   x="138"
   y="132"
   transform="rotate(180,322.12445,144)"
   class="st3"
   width="368.20001"
   height="24"
   id="rect95" />
	<rect
   x="138"
   transform="rotate(180,322.12445,12)"
   class="st3"
   width="368.20001"
   height="24"
   id="rect97"
   y="0" />
	<rect
   x="0"
   y="24"
   transform="rotate(180,12,78)"
   class="st3"
   width="24"
   height="108"
   id="rect99" />
	<rect
   x="114"
   y="24"
   transform="rotate(180,126,78)"
   class="st3"
   width="24"
   height="108"
   id="rect101" />
	<rect
   x="506"
   y="24"
   transform="rotate(180,518,78)"
   class="st3"
   width="24"
   height="108"
   id="rect103" />
	<text
   transform="translate(26.367,13.0497)"
   class="st4 st5 st6"
   id="text105">a</text>
	<text
   transform="translate(10.2775,21.1396)"
   class="st4 st5 st6"
   id="text107">a</text>
</g>
<g
   id="Grid_x5F_12"
   class="st2"
   transform="translate(-24,-24)">
</g>
</svg>
