<?xml version="1.0" encoding="UTF-8" standalone="no"?>
<svg
   version="1.1"
   width="400"
   height="340"
   viewBox="0 0 238.9939727783203 38.53957557678223"
   dominant-baseline="middle"
   text-anchor="middle"
   paint-order="stroke"
   stroke-linecap="butt"
   stroke-linejoin="round"
   id="svg689"
   sodipodi:docname="custom.svg"
   inkscape:version="1.2 (dc2aedaf03, 2022-05-15)"
   xmlns:inkscape="http://www.inkscape.org/namespaces/inkscape"
   xmlns:sodipodi="http://sodipodi.sourceforge.net/DTD/sodipodi-0.dtd"
   xmlns="http://www.w3.org/2000/svg"
   xmlns:svg="http://www.w3.org/2000/svg">
  <defs
     id="defs693" />
  <sodipodi:namedview
     id="namedview691"
     pagecolor="#ffffff"
     bordercolor="#000000"
     borderopacity="0.25"
     inkscape:showpageshadow="2"
     inkscape:pageopacity="0.0"
     inkscape:pagecheckerboard="0"
     inkscape:deskcolor="#d1d1d1"
     showgrid="false"
     inkscape:zoom="1.7740061"
     inkscape:cx="136.13256"
     inkscape:cy="148.53387"
     inkscape:window-width="1920"
     inkscape:window-height="1111"
     inkscape:window-x="-9"
     inkscape:window-y="-9"
     inkscape:window-maximized="1"
     inkscape:current-layer="svg689" />
  <g
     aria-label="youtu.be/dQw4w9WgXcQ"
     id="text687"
     style="font-weight:bold;font-family:Pacifico;fill:#222222;stroke:#ffffff;stroke-width:4"
     class="s-Gb3CehxGUmt_"
     transform="rotate(4.7171435,326.61253,10.71183)">
    <path
       id="path2936"
       d="m 234.31744,26.179373 q 0.20539,0 0.30808,0.205381 0.12323,0.225919 0.12323,0.575067 0,0.65722 -0.34916,1.293902 -0.69829,1.273364 -1.84842,1.951122 -1.12959,0.698296 -2.32082,0.698296 -1.21174,0 -2.03327,-0.390225 -0.82152,-0.369685 -1.39659,-1.129596 -0.57506,-0.739372 -1.10906,-1.97166 -0.55453,-1.273365 -0.92421,-1.910047 -0.34916,-0.616143 -0.73937,-0.903677 -0.39023,-0.287534 -1.00637,-0.410762 -2.27974,-0.451839 -3.67634,-2.259194 -1.37605,-1.807355 -1.37605,-4.662156 0,-3.121794 1.12961,-5.504217 1.15013,-2.3824228 3.10125,-3.6763249 1.97167,-1.2939018 4.35408,-1.2939018 1.8279,0 3.28611,0.821525 1.47874,0.821525 2.34134,2.4234987 0.8626,1.581436 0.8626,3.799553 0,2.587805 -0.78045,4.662156 -0.78045,2.07435 -2.1565,3.450405 -1.37605,1.376055 -3.16287,1.951123 0.51346,0.287533 0.88314,0.842062 0.39022,0.554529 0.82152,1.601975 0.47238,1.150135 1.00637,1.64305 0.55453,0.492915 1.35551,0.492915 0.67776,0 1.31445,-0.472379 0.63667,-0.451837 1.43767,-1.499283 0.24645,-0.328608 0.55452,-0.328608 z m -9.65291,-4.29247 q 1.60197,0 2.81372,-0.98583 1.23228,-0.98583 1.8895,-2.73157 0.65723,-1.76628 0.65723,-3.984398 0,-2.444036 -1.02691,-3.696862 -1.02691,-1.2733638 -2.64941,-1.2733638 -1.5609,0 -2.79319,1.0063678 -1.21176,0.98583 -1.88952,2.731571 -0.67776,1.745741 -0.67776,3.963859 0,2.444037 1.02692,3.717401 1.0269,1.252825 2.64942,1.252825 z m -10.65929,2.423499 q -2.01274,0 -3.14234,-1.129596 -1.10905,-1.150136 -1.10905,-3.019105 0,-1.663588 0.65722,-2.916414 0.65722,-1.252825 1.70466,-1.930585 1.04745,-0.677757 2.19757,-0.677757 1.12961,0 1.74576,0.677757 0.63667,0.65722 0.63667,1.704666 0,0.862601 -0.39022,1.458205 -0.36969,0.595607 -0.98583,0.595607 -0.39022,0 -0.63669,-0.184843 -0.22591,-0.184843 -0.22591,-0.513453 0,-0.143767 0.0411,-0.328611 0.0411,-0.184842 0.0616,-0.266995 0.10265,-0.308073 0.10265,-0.575067 0,-0.266996 -0.14377,-0.410763 -0.12323,-0.143766 -0.36968,-0.143766 -0.47238,0 -0.88314,0.4313 -0.41077,0.410763 -0.65722,1.129597 -0.24647,0.718834 -0.24647,1.581436 0,2.382422 2.07436,2.382422 0.84207,0 1.80735,-0.554529 0.98584,-0.575068 1.93058,-1.704665 0.24647,-0.287533 0.55453,-0.287533 0.267,0 0.41077,0.246457 0.16431,0.246458 0.16431,0.677758 0,0.780449 -0.39023,1.273364 -0.96529,1.191211 -2.32081,1.848431 -1.33498,0.636682 -2.5878,0.636682 z m -2.83426,-4.682692 q 0.26699,0 0.41075,0.246457 0.16431,0.246458 0.16431,0.677758 0,0.800987 -0.39021,1.273364 -1.00638,1.191211 -1.99221,1.848431 -0.98583,0.636682 -2.19759,0.636682 -1.82788,0 -2.77264,-1.088521 -0.92421,-1.08852 -1.49929,-3.183409 l -0.69829,-2.546727 -4.84699,5.997132 q -0.41076,0.513453 -0.84207,0.677758 -0.43129,0.143767 -1.00636,0.143767 -0.57507,0 -0.96529,-0.205381 -0.36969,-0.22592 -0.36969,-0.616144 0,-0.513452 0.5956,-1.170673 l 6.65435,-7.578569 -0.65722,-2.402961 q -0.47237,-1.684126 -1.04744,-2.3618842 -0.57507,-0.6777581 -1.31443,-0.6777581 -1.08854,0 -2.54674,1.5814353 -0.24645,0.266997 -0.55452,0.266997 -0.30809,0 -0.534,-0.22592 -0.20538,-0.246458 -0.20538,-0.616144 0,-0.6161439 0.5956,-1.3349783 0.84207,-0.9858302 1.8279,-1.5814358 0.98583,-0.5956056 2.34134,-0.5956056 1.45821,0 2.40297,0.9242157 0.94476,0.9036776 1.49929,2.936952 l 0.41075,1.437669 3.59417,-4.374621 q 0.41077,-0.4929151 0.84207,-0.6982964 0.4313,-0.2053812 1.04745,-0.2053812 0.55452,0 0.8626,0.2053812 0.3286,0.2053813 0.3286,0.5750675 0,0.492915 -0.55452,1.1295971 l -5.33992,6.1614378 1.17068,4.189778 q 0.30806,1.088521 0.55453,1.663588 0.24645,0.575068 0.5956,0.862602 0.36969,0.266995 0.9653,0.266995 0.63668,0 1.31444,-0.451839 0.69829,-0.451838 1.60197,-1.499283 0.24645,-0.287533 0.55453,-0.287533 z m -15.03391,0.04107 q 0.26699,0 0.41076,0.266995 0.1643,0.246458 0.1643,0.636682 0,0.472378 -0.14376,0.739373 -0.14378,0.266995 -0.45184,0.472376 -1.76628,1.191213 -2.58781,1.76628 l -1.31444,0.883138 q -0.78044,4.251393 -2.0538,6.674892 -1.25283,2.444037 -3.20396,2.444037 -1.04745,0 -1.70466,-0.65722 -0.65722,-0.636682 -0.65722,-1.684126 0,-1.458207 1.15013,-3.142333 1.15015,-1.663588 4.313,-4.107626 l 0.12324,-0.800987 q -0.34914,0.55453 -0.92422,0.862601 -0.55453,0.287534 -1.10905,0.287534 -1.27336,0 -2.03327,-0.924216 -0.75992,-0.924216 -0.75992,-2.423499 0,-1.64305 0.75992,-3.101256 0.75991,-1.478745 2.01272,-2.361885 1.27337,-0.903677 2.6905,-0.903677 0.45185,0 0.5956,0.184843 0.16431,0.164305 0.267,0.616144 0.39022,-0.08215 0.90369,-0.08215 0.51345,0 0.71883,0.164305 0.22591,0.143767 0.22591,0.595605 0,0.246458 -0.0205,0.390225 -0.0821,0.636682 -0.51346,3.224485 -0.0821,0.492915 -0.18483,1.088522 -0.0821,0.575068 -0.18485,1.232288 1.58143,-1.232288 3.03965,-2.177042 0.26698,-0.164306 0.47237,-0.164306 z m -7.24996,2.567265 q 0.47237,0 0.90368,-0.575067 0.43129,-0.575068 0.61614,-1.64305 l 0.65722,-3.51202 q -0.84207,0.02054 -1.5609,0.65722 -0.71884,0.616144 -1.15013,1.64305 -0.43131,1.026908 -0.43131,2.177043 0,0.636682 0.24647,0.944752 0.267,0.308072 0.71883,0.308072 z m -1.70467,9.32431 q 0.51346,0 1.15015,-1.232288 0.65722,-1.232287 1.25282,-3.922781 -1.58144,1.355516 -2.27974,2.444036 -0.69829,1.088521 -0.69829,1.910046 0,0.349148 0.12323,0.575068 0.14377,0.225919 0.45183,0.225919 z m 0.34918,-16.225121 q 0.47239,0 0.67776,0.205382 0.22592,0.205382 0.22592,0.533992 0,0.533991 -0.3286,0.944753 -0.30807,0.410763 -0.98583,0.431301 -1.62252,0.02054 -2.91642,-0.246457 -1.43766,3.060181 -3.47095,5.093454 -2.01272,2.012737 -3.9844,2.012737 -1.80734,0 -2.71103,-1.910045 -0.90367,-1.930585 -1.02689,-5.15507 -1.2323,3.573634 -2.79319,5.319375 -1.54036,1.74574 -3.2861,1.74574 -1.97167,0 -2.97803,-2.444037 -1.00636,-2.464575 -1.00636,-6.613276 0,-3.019105 0.53398,-6.6338157 0.14376,-1.0269062 0.51345,-1.4171306 0.39023,-0.4107625 1.21176,-0.4107625 0.61614,0 0.94475,0.2669956 0.34915,0.2669957 0.34915,0.9858301 0,0.1437669 -0.0411,0.5545293 -0.61614,4.2103168 -0.61614,7.1678058 0,2.75211 0.47238,4.251393 0.47238,1.499283 1.27336,1.499283 0.71883,0 1.72521,-1.499283 1.0269,-1.519822 2.03327,-4.477312 1.00637,-2.978029 1.70466,-7.0856536 0.16431,-0.9447537 0.5956,-1.293902 0.45184,-0.3696862 1.21175,-0.3696862 0.63669,0 0.92423,0.2875337 0.30807,0.2669958 0.30807,0.8215251 0,0.32861 -0.0411,0.5134533 -0.57507,3.3477137 -0.57507,6.6954297 0,2.279732 0.14377,3.635248 0.1643,1.355516 0.5956,2.074351 0.45184,0.698296 1.29391,0.698296 0.98583,0 2.19757,-1.478745 1.21175,-1.499283 2.21812,-3.717401 -1.25283,-0.780449 -1.88951,-2.012736 -0.63669,-1.252827 -0.63669,-2.875337 0,-1.6225135 0.49293,-2.7315722 0.51345,-1.1295969 1.37606,-1.6841261 0.88313,-0.5545295 1.95111,-0.5545295 1.31444,0 2.07435,0.9447537 0.78045,0.9447539 0.78045,2.5878037 0,2.3208094 -1.00637,5.1550704 1.04745,0.184842 2.46457,0.184842 z m -6.05874,-4.046009 q 0,2.012736 1.29391,2.978027 0.80098,-2.30027 0.80098,-3.799553 0,-0.8626017 -0.22593,-1.2528261 -0.22591,-0.4107625 -0.61614,-0.4107625 -0.55453,0 -0.90367,0.65722 -0.34915,0.6366816 -0.34915,1.8278946 z M 155.3689,12.21344 q 2.11543,0 3.22449,1.334977 1.12959,1.314441 1.12959,3.655788 0,2.094888 -0.71884,3.7174 -0.69829,1.601974 -2.01272,2.505653 -1.29391,0.883138 -3.03965,0.883138 -1.58143,0 -2.60834,-0.718835 -1.00637,-0.739371 -1.15013,-1.930583 l -0.0205,-0.22592 q 0,-0.53399 0.32861,-0.821525 0.34915,-0.308072 0.9653,-0.308072 0.45182,0 0.71883,0.246459 0.28753,0.225918 0.49291,0.800986 0.16431,0.4313 0.534,0.677758 0.39022,0.246459 0.96529,0.246459 1.19121,0 1.93059,-0.924217 0.75989,-0.944753 0.94474,-2.793185 -0.53399,0.616144 -1.21175,0.883139 -0.67775,0.246458 -1.49928,0.246458 -1.02691,0 -1.84843,-0.431301 -0.80099,-0.431301 -1.25283,-1.191211 -0.45183,-0.780449 -0.45183,-1.725204 0,-1.170672 0.53398,-2.094887 0.55453,-0.944754 1.58145,-1.478747 1.04744,-0.554528 2.46457,-0.554528 z m -0.41077,5.422065 q 0.88315,0 1.37607,-0.492915 0.49291,-0.492915 0.49291,-1.31444 0,-0.739372 -0.41076,-1.170673 -0.41075,-0.431301 -1.15013,-0.431301 -0.82153,0 -1.33499,0.533991 -0.49291,0.513453 -0.49291,1.355517 0,0.698296 0.41076,1.109059 0.41076,0.410762 1.10905,0.410762 z M 148.961,14.616404 q 1.1296,0 1.1296,0.718834 0,0.246459 -0.16431,0.677759 -1.66359,3.881706 -3.14233,6.26413 -0.73937,1.170671 -1.33498,1.601972 -0.5956,0.431301 -1.35551,0.431301 -0.82152,0 -1.23229,-0.636682 -0.39023,-0.636682 -0.49291,-2.094889 -0.0411,-0.53399 -0.0821,-1.601972 -0.63668,1.766277 -1.17066,2.711032 -0.51346,0.924216 -1.02692,1.273363 -0.49291,0.349148 -1.1912,0.349148 -0.84207,0 -1.33498,-0.65722 -0.47239,-0.657219 -0.59561,-2.074351 -0.24646,-2.875337 -0.24646,-5.03184 v -0.718835 q 0.0205,-0.698297 0.34915,-0.944754 0.32861,-0.266996 1.06798,-0.266996 0.534,0 0.78045,0.246458 0.26699,0.22592 0.26699,0.780449 0,2.361884 0.28754,6.140899 0.67776,-1.437668 1.25283,-2.752108 0.57507,-1.31444 1.33498,-3.368253 0.22591,-0.616145 0.53399,-0.821526 0.32861,-0.225919 0.75991,-0.225919 0.57507,0 0.8626,0.246458 0.28753,0.22592 0.28753,0.780449 v 3.183409 q 0,2.053813 0.0205,2.95749 0.94476,-1.64305 1.54036,-2.854799 0.61614,-1.211749 1.37605,-3.265562 0.22591,-0.616145 0.59561,-0.821526 0.36968,-0.225919 0.92422,-0.225919 z m -14.89014,4.970227 q 1.08853,0 1.08853,0.924216 0,0.739372 -0.41077,1.026906 -0.41076,0.287534 -1.2939,0.287534 h -0.43129 l -0.0821,1.088521 q -0.0616,0.944753 -0.41075,1.273364 -0.32861,0.328609 -1.08853,0.328609 -1.08851,0 -1.08851,-1.334977 0,-0.225921 0.0205,-0.349148 l 0.10265,-1.006369 q -2.97801,0 -4.51837,-0.02054 -0.45185,0 -0.801,-0.410764 -0.34915,-0.410761 -0.34915,-1.067982 0,-0.390223 0.14377,-0.821524 0.90367,-2.628881 2.71103,-5.976596 0.39023,-0.718834 0.78045,-1.006368 0.41077,-0.308072 1.25283,-0.308072 0.45184,0 0.67776,0.205382 0.24645,0.205381 0.24645,0.533991 0,0.349148 -0.20537,0.698296 -2.01275,3.676325 -2.83427,5.935519 h 3.16287 q 0.24647,-1.910046 0.67776,-3.635249 0.16431,-0.636682 0.53399,-0.965292 0.36968,-0.349147 1.02691,-0.349147 1.04744,0 1.04744,0.903677 0,0.266995 -0.0411,0.410762 -0.36969,1.745742 -0.65722,3.635249 z m -10.63875,-4.970227 q 1.1296,0 1.1296,0.718834 0,0.246459 -0.1643,0.677759 -1.66359,3.881706 -3.14233,6.26413 -0.73938,1.170671 -1.33498,1.601972 -0.59561,0.431301 -1.35552,0.431301 -0.82152,0 -1.23229,-0.636682 -0.39023,-0.636682 -0.49292,-2.094889 -0.0411,-0.53399 -0.0821,-1.601972 -0.63669,1.766277 -1.17069,2.711032 -0.51345,0.924216 -1.02689,1.273363 -0.49292,0.349148 -1.19121,0.349148 -0.84207,0 -1.33499,-0.65722 -0.47237,-0.657219 -0.59561,-2.074351 -0.24645,-2.875337 -0.24645,-5.03184 v -0.718835 q 0.0205,-0.698297 0.34915,-0.944754 0.32861,-0.266996 1.06799,-0.266996 0.53398,0 0.78044,0.246458 0.26699,0.22592 0.26699,0.780449 0,2.361884 0.28755,6.140899 0.67774,-1.437668 1.25281,-2.752108 0.57507,-1.31444 1.33498,-3.368253 0.22593,-0.616145 0.53399,-0.821526 0.32861,-0.225919 0.7599,-0.225919 0.57509,0 0.86262,0.246458 0.28754,0.22592 0.28754,0.780449 v 3.183409 q 0,2.053813 0.0205,2.95749 0.94474,-1.64305 1.54036,-2.854799 0.61614,-1.211749 1.37605,-3.265562 0.22592,-0.616145 0.59561,-0.821526 0.36968,-0.225919 0.9242,-0.225919 z M 111.04762,26.17937 q 0.20538,0 0.30807,0.205381 0.12324,0.22592 0.12324,0.575068 0,0.65722 -0.34916,1.293902 -0.69829,1.273364 -1.84842,1.951122 -1.12961,0.698296 -2.32081,0.698296 -1.21175,0 -2.03327,-0.390224 -0.82154,-0.369687 -1.39659,-1.129597 -0.57507,-0.739373 -1.10907,-1.97166 -0.55453,-1.273364 -0.9242,-1.910046 -0.34916,-0.616145 -0.73938,-0.903679 -0.39023,-0.287533 -1.006377,-0.410761 -2.279725,-0.45184 -3.676322,-2.259195 -1.376055,-1.807354 -1.376055,-4.662154 0,-3.121795 1.129597,-5.504219 1.150133,-2.3824221 3.101255,-3.6763238 1.971652,-1.293902 4.354082,-1.293902 1.8279,0 3.28611,0.8215251 1.47874,0.821525 2.34134,2.4234987 0.8626,1.581435 0.8626,3.799553 0,2.587805 -0.78045,4.662155 -0.78045,2.074351 -2.1565,3.450405 -1.37606,1.376056 -3.16287,1.951123 0.51345,0.287534 0.88313,0.842062 0.39023,0.55453 0.82152,1.601975 0.4724,1.150135 1.00638,1.64305 0.55453,0.492915 1.35552,0.492915 0.67775,0 1.31444,-0.472377 0.63667,-0.451838 1.43766,-1.499283 0.24647,-0.32861 0.55453,-0.32861 z m -9.65292,-4.292469 q 1.60198,0 2.81374,-0.985829 1.23227,-0.985831 1.88949,-2.731572 0.65723,-1.766278 0.65723,-3.984397 0,-2.444036 -1.02691,-3.696862 -1.0269,-1.2733641 -2.64942,-1.2733641 -1.56089,0 -2.79319,1.0063691 -1.211747,0.985829 -1.889496,2.731571 -0.67776,1.745739 -0.67776,3.963858 0,2.444037 1.026906,3.7174 1.026906,1.252826 2.64941,1.252826 z m -5.935496,-2.259194 q 0.266995,0 0.410763,0.246458 0.164304,0.246458 0.164304,0.677759 0,0.821524 -0.390224,1.273363 -0.842062,1.026907 -1.848431,1.766278 -1.006368,0.718835 -1.9922,0.718835 -1.560897,0 -2.382421,-1.827892 -0.862601,1.08852 -1.519821,1.458205 -0.636682,0.369687 -1.499283,0.369687 -1.252834,0 -2.074359,-0.924216 -0.800987,-0.944754 -0.800987,-2.444037 0,-1.64305 0.698296,-3.039642 0.698297,-1.417132 1.910053,-2.30027 1.232288,-0.903679 2.752109,-1.067983 0.390225,-3.984397 1.478745,-6.7981201 1.10906,-2.8342614 2.895876,-2.8342614 0.88314,0 1.458207,0.800987 0.595606,0.8009868 0.595606,2.4234989 0,2.3002696 -1.129597,5.3809896 -1.129597,3.080719 -3.019105,6.325744 0.08216,1.19121 0.349148,1.704663 0.287533,0.513454 0.718834,0.513454 0.554531,0 1.129598,-0.492915 0.575068,-0.492916 1.540359,-1.643051 0.246458,-0.287534 0.55453,-0.287534 z M 93.035705,6.9146089 q -0.390224,0 -0.780449,1.3965927 -0.390224,1.3760545 -0.677758,3.6147104 -0.266997,2.238655 -0.390224,4.682692 2.30027,-5.011302 2.30027,-8.0509448 0,-0.7804489 -0.143767,-1.2117496 -0.123229,-0.4313007 -0.308072,-0.4313007 z m -5.91498,15.3214421 q 0.390223,0 0.780449,-0.308071 0.390223,-0.32861 0.985829,-1.191212 -0.20538,-1.109058 -0.20538,-2.485113 0,-0.492916 0.04107,-1.601973 -1.129598,0.349148 -1.889508,1.519821 -0.739374,1.150135 -0.739374,2.567265 0,1.499283 1.026908,1.499283 z m -10.720943,2.074351 q -0.472375,0 -0.842062,-0.328609 -0.349148,-0.349149 -0.349148,-0.903678 0,-0.451839 0.287534,-0.98583 L 84.101581,5.9287789 q 0.246457,-0.472377 0.554529,-0.6982963 0.32861,-0.2259194 0.657221,-0.2259194 0.472375,0 0.800991,0.3902244 0.349148,0.3696863 0.349148,0.9242157 0,0.4518387 -0.225919,0.8420632 L 77.447227,23.653182 q -0.184842,0.328611 -0.472376,0.492915 -0.266996,0.164305 -0.575069,0.164305 z m -2.916393,-4.066549 q 0.266996,0 0.410763,0.246458 0.164305,0.246457 0.164305,0.677758 0,0.739372 -0.349148,1.273364 -0.575068,0.88314 -1.519823,1.376054 -0.924214,0.492915 -2.218117,0.492915 -1.971659,0 -3.060181,-1.170673 -1.08852,-1.191211 -1.08852,-3.203948 0,-1.41713 0.595605,-2.628879 0.595607,-1.232288 1.643052,-1.951122 1.067982,-0.718835 2.402959,-0.718835 1.191212,0 1.910047,0.718835 0.718834,0.698295 0.718834,1.910044 0,1.417132 -1.026906,2.444038 -1.006368,1.006368 -3.450406,1.601974 0.492915,0.944755 1.663589,0.944755 0.842062,0 1.376054,-0.390226 0.55453,-0.390224 1.273364,-1.31444 0.246458,-0.308072 0.554529,-0.308072 z m -3.368253,-3.594171 q -0.75991,0 -1.293902,0.883139 -0.513453,0.883139 -0.513453,2.135965 v 0.04107 q 1.21175,-0.287534 1.910047,-0.862601 0.698296,-0.575067 0.698296,-1.334979 0,-0.390224 -0.225921,-0.616143 -0.20538,-0.246458 -0.575067,-0.246458 z m -2.772638,1.252824 q 0.266996,0 0.410763,0.266997 0.143767,0.266995 0.143767,0.677758 0,0.513453 -0.143767,0.800987 -0.143767,0.266995 -0.451839,0.369686 -1.232287,0.431301 -2.711034,0.492915 -0.410762,1.704664 -1.560897,2.75211 -1.129597,1.047443 -2.505651,1.047443 -2.074351,0 -3.019105,-1.581436 -0.944754,-1.581435 -0.944754,-4.580001 0,-2.649418 0.657221,-5.750676 0.65722,-3.1217954 1.910045,-5.2988369 1.273364,-2.1975796 3.019105,-2.1975796 0.944753,0 1.519821,0.8215252 0.575067,0.8009868 0.575067,2.0948888 0,1.6841265 -0.636682,3.3477145 -0.636681,1.663588 -2.115425,3.491482 1.376053,0.102691 2.238654,1.150135 0.862601,1.026905 1.026908,2.546728 0.965291,-0.06162 2.30027,-0.410763 0.123228,-0.04107 0.287533,-0.04107 z M 61.673975,6.9351472 q -0.410763,0 -0.903677,1.2322875 -0.472378,1.2117495 -0.88314,3.3066383 -0.410763,2.09489 -0.616144,4.580002 1.355518,-2.485112 2.156503,-4.374621 0.821525,-1.9100454 0.821525,-3.3887905 0,-0.6572201 -0.164305,-1.0063682 Q 61.94097,6.9351472 61.673975,6.9351472 Z M 60.605992,22.133361 q 0.636682,0 1.129597,-0.533991 0.492915,-0.533992 0.65722,-1.54036 -0.636682,-0.4313 -0.98583,-1.129597 -0.32861,-0.698296 -0.32861,-1.478745 0,-0.287533 0.08216,-0.780448 h -0.06162 q -0.842064,0 -1.417132,0.842063 -0.554529,0.821524 -0.554529,2.218117 0,1.170673 0.431302,1.786817 0.451838,0.616144 1.047443,0.616144 z m -7.024055,2.177041 q -0.903677,0 -1.376054,-0.492915 -0.451839,-0.492914 -0.451839,-1.293902 0,-0.924215 0.513453,-1.478745 0.533993,-0.554529 1.478745,-0.554529 0.903678,0 1.355518,0.451839 0.472375,0.4313 0.472375,1.293901 0,0.944755 -0.533991,1.519823 -0.533991,0.554528 -1.458207,0.554528 z m -8.728685,0 q -0.965291,0 -1.560898,-0.780449 -0.575067,-0.800987 -0.575067,-2.197579 0,-1.540359 0.205381,-2.813723 0.205381,-1.293902 0.677759,-2.731571 0.205382,-0.616145 0.575068,-0.88314 0.369686,-0.266995 1.170672,-0.266995 0.45184,0 0.616145,0.143767 0.184843,0.143767 0.184843,0.431301 0,0.164305 -0.225921,1.109057 -0.20538,0.759912 -0.328609,1.376056 -0.410762,2.156503 -0.410762,2.875337 0,0.431301 0.102691,0.616144 0.10269,0.164305 0.328611,0.164305 0.30807,0 0.780448,-0.616144 0.472377,-0.636682 0.98583,-1.889507 0.533992,-1.273364 1.006369,-3.060181 0.164305,-0.616145 0.492915,-0.88314 0.349148,-0.266995 1.026906,-0.266995 0.451839,0 0.636682,0.246457 0.205381,0.225919 0.205381,0.698297 0,0.513453 -0.08216,1.150135 -0.08216,0.616144 -0.184844,1.273364 -0.20538,1.31444 -0.328609,2.40296 -0.123228,1.067983 -0.123228,2.444037 0,0.780449 -0.328612,1.129598 -0.30807,0.328609 -1.026905,0.328609 -0.759911,0 -1.067983,-0.390224 -0.287534,-0.410763 -0.287534,-1.560898 0,-0.225919 0.04107,-1.006368 -0.349148,1.437669 -1.047444,2.197581 -0.67776,0.759909 -1.458209,0.759909 z M 43.805814,19.62771 q 0.266996,0 0.410763,0.246457 0.164306,0.246458 0.164306,0.677758 0,0.821525 -0.390226,1.273364 -0.883138,1.088521 -1.930583,1.786818 -1.047445,0.698295 -2.402961,0.698295 -4.189778,0 -4.189778,-5.894442 0,-0.903677 0.06162,-1.827893 H 34.72797 q -0.616145,0 -0.842065,-0.225919 -0.205381,-0.22592 -0.205381,-0.718835 0,-1.150135 0.924216,-1.150135 h 1.170674 q 0.349148,-2.259194 1.067982,-4.128164 0.718835,-1.8689693 1.725203,-2.9780281 1.026906,-1.1090589 2.197579,-1.1090589 0.862601,0 1.355516,0.7599107 0.492917,0.7599107 0.492917,1.9100459 0,3.1834094 -2.669958,5.5452944 h 2.300271 q 0.328609,0 0.472376,0.143767 0.143767,0.143767 0.143767,0.53399 0,1.417132 -2.320808,1.417132 h -2.505653 q -0.04107,1.026905 -0.04107,1.601973 0,2.135966 0.492915,2.998567 0.513453,0.862601 1.601973,0.862601 0.88314,0 1.560898,-0.533991 0.677758,-0.533991 1.601973,-1.601974 0.246458,-0.287533 0.55453,-0.287533 z M 40.211643,8.2495872 q -0.308072,0 -0.698297,0.7804489 -0.369686,0.7599106 -0.718834,2.1359649 -0.32861,1.355516 -0.554529,3.019104 1.211749,-1.047444 1.807355,-2.341346 0.616143,-1.31444 0.616143,-2.3824223 0,-1.2117495 -0.451838,-1.2117495 z M 27.252088,24.310402 q -0.924215,0 -1.519821,-0.842062 -0.575068,-0.862602 -0.575068,-2.135966 0,-1.540359 0.205382,-2.813723 0.205381,-1.293902 0.677758,-2.731571 0.205381,-0.616145 0.575067,-0.88314 0.369687,-0.266995 1.170673,-0.266995 0.451839,0 0.616144,0.143767 0.184843,0.143767 0.184843,0.431301 0,0.164305 -0.225919,1.109057 -0.205381,0.759912 -0.32861,1.376056 -0.410763,2.156503 -0.410763,2.875337 0,0.431301 0.102691,0.616144 0.102691,0.164305 0.32861,0.164305 0.308072,0 0.759911,-0.616144 0.472377,-0.616143 0.98583,-1.868969 0.533992,-1.252827 1.026907,-3.080719 0.164304,-0.616145 0.492914,-0.88314 0.349148,-0.266995 1.026907,-0.266995 0.472377,0 0.657219,0.123228 0.184844,0.102691 0.184844,0.410762 0,0.513454 -0.513454,2.813725 -0.575067,2.62888 -0.575067,3.245023 0,0.390225 0.164306,0.616144 0.164304,0.205381 0.4313,0.205381 0.410763,0 0.965291,-0.492915 0.575068,-0.513453 1.519822,-1.64305 0.246458,-0.287533 0.554529,-0.287533 0.266996,0 0.410763,0.246457 0.164305,0.246458 0.164305,0.677758 0,0.821525 -0.390224,1.273364 -0.883139,1.088521 -1.910047,1.786818 -1.006368,0.698295 -2.30027,0.698295 -0.98583,0 -1.458207,-0.759909 -0.451838,-0.759912 -0.451838,-2.135967 -0.349148,1.396593 -1.047445,2.156504 -0.698296,0.739372 -1.499283,0.739372 z m -0.883144,-6.407896 q 0.266996,0 0.410763,0.266997 0.143767,0.266995 0.143767,0.677758 0,0.98583 -0.595607,1.170673 -1.232288,0.431301 -2.711033,0.492915 -0.390224,1.725202 -1.540359,2.772647 -1.150135,1.026906 -2.608342,1.026906 -1.232287,0 -2.115428,-0.595606 -0.862601,-0.595604 -1.314439,-1.581435 -0.451838,-0.98583 -0.451838,-2.135965 0,-1.560898 0.595605,-2.772647 0.595605,-1.232287 1.64305,-1.910047 1.047445,-0.698296 2.320808,-0.698296 1.560898,0 2.505651,1.088522 0.965292,1.067982 1.129598,2.649418 0.965291,-0.06162 2.30027,-0.410763 0.164304,-0.04107 0.287534,-0.04107 z m -6.736506,4.230855 q 0.65722,0 1.129597,-0.533991 0.492915,-0.533992 0.65722,-1.54036 -0.636682,-0.4313 -0.98583,-1.129597 -0.32861,-0.698296 -0.32861,-1.478745 0,-0.328611 0.06162,-0.65722 h -0.102691 q -0.821524,0 -1.376053,0.800987 -0.533991,0.780449 -0.533991,2.218118 0,1.129597 0.4313,1.725202 0.451839,0.595606 1.047443,0.595606 z m -3.060183,-2.464575 q 0.266996,0 0.410763,0.266995 0.164305,0.246458 0.164305,0.636682 0,0.472377 -0.143767,0.739373 -0.143767,0.266995 -0.451839,0.472377 l -3.94332,2.649418 q -0.780449,4.251393 -2.053813,6.674891 -1.2528249,2.444037 -3.2039479,2.444037 -1.0474444,0 -1.7046644,-0.65722 -0.65722,-0.636682 -0.65722,-1.684126 0,-0.965292 0.4313006,-1.97166 0.4518388,-1.006369 1.64305,-2.320808 1.2117494,-1.293902 3.4093297,-2.978029 l 0.06162,-0.472376 q 0.143767,-0.759912 0.328609,-2.177042 -0.410762,1.478745 -1.1501353,2.259195 -0.7393725,0.759909 -1.5608974,0.759909 -0.9242157,0 -1.5198213,-0.842062 -0.5750686,-0.862602 -0.5750686,-2.135966 0,-1.540359 0.2053812,-2.813723 0.2053813,-1.293902 0.6777581,-2.731571 0.2053813,-0.616145 0.5750675,-0.88314 0.3696863,-0.266995 1.1706731,-0.266995 0.4518388,0 0.6161449,0.143767 0.184842,0.143767 0.184842,0.431301 0,0.164305 -0.2259194,1.109057 -0.2053812,0.759912 -0.32861,1.376056 -0.164305,0.842063 -0.2875337,1.622512 -0.1232276,0.75991 -0.1232276,1.252825 0,0.780449 0.4313006,0.780449 0.3080707,0 0.7599095,-0.616144 0.4723784,-0.616143 0.9858304,-1.868969 0.533992,-1.252827 1.026907,-3.080719 0.164305,-0.616145 0.492915,-0.88314 0.349147,-0.266995 1.026906,-0.266995 0.472377,0 0.65722,0.123228 0.184843,0.123229 0.184843,0.410762 0,0.513454 -0.533991,3.532559 l -0.533991,3.306638 q 1.581435,-1.191211 3.080719,-2.177041 0.266995,-0.164305 0.472375,-0.164305 z M 7.5765554,31.560361 q 0.5134543,0 1.150135,-1.191212 0.6366819,-1.19121 1.2733636,-3.963857 -1.5814354,1.334978 -2.3002698,2.423499 -0.6982962,1.109057 -0.6982962,1.930583 0,0.349148 0.1232287,0.575068 0.1437669,0.225919 0.4518387,0.225919 z"
       style="stroke-width:6.84604" />
  </g>
  <g
     aria-label="GadgetHorse"
     id="text4404"
     style="font-weight:bold;font-size:22.3061px;font-family:'Comic Sans MS';-inkscape-font-specification:'Comic Sans MS Bold';fill:#222222;stroke:#ffffff;stroke-width:6.77464;stroke-linecap:round;stroke-miterlimit:17;paint-order:stroke markers fill"
     transform="matrix(1.2748695,-0.08530337,0.08530337,1.2748695,-27.243283,8.1547432)">
    <path
       id="path4873"
       style="stroke-width:6.77463"
       d="m 176.20879,40.519413 q -2.6031,0 -4.25864,-1.241648 -1.82979,-1.372348 -1.82979,-3.866537 0,-2.755588 1.44859,-4.661627 1.61196,-2.112981 4.34577,-2.112981 1.89514,0 3.14768,0.609933 1.64464,0.805982 1.64464,2.50508 0,1.198082 -1.33967,2.123872 -0.60993,0.424775 -2.45062,1.241649 l -3.67049,1.622856 q 0.5228,0.566366 1.26343,0.849549 0.74063,0.283183 1.6991,0.283183 1.45948,0 2.47241,-0.599041 0.904,-0.533691 1.44859,-0.533691 1.13273,0 1.13273,1.100057 0,1.241648 -1.81891,2.025847 -1.52483,0.653499 -3.23482,0.653499 z M 175.91472,31.2724 q -1.01293,0 -1.73178,0.675283 -0.71885,0.675282 -1.15451,2.025847 1.23075,-0.533691 2.45062,-1.05649 1.47037,-0.664391 2.3417,-1.230757 -0.72974,-0.413883 -1.90603,-0.413883 z m -8.38658,0.773308 q -1.07827,0 -1.2961,-0.904008 -0.43567,-0.07624 -0.89312,-0.07624 -2.62489,0 -2.62489,0.718849 0,0.424774 1.57929,1.143624 2.15655,0.99114 2.91896,1.546614 1.57929,1.143624 1.57929,2.581322 0,1.873364 -1.74266,2.842721 -1.40502,0.773308 -3.45265,0.773308 -1.44859,0 -2.64668,-0.446558 -1.63374,-0.609933 -1.63374,-1.797123 0,-1.089165 1.2961,-1.089165 0.50102,0 1.44859,0.315858 0.94758,0.315858 1.45948,0.315858 2.21101,0 2.2219,-0.893116 0,-0.555474 -1.53572,-1.230757 -2.24368,-0.99114 -2.8754,-1.426806 -1.53572,-1.078274 -1.53572,-2.624888 0,-2.189223 2.31992,-2.951638 1.36146,-0.446558 4.13883,-0.446558 1.08916,0 1.61196,0.283183 0.71885,0.381208 0.71885,1.405023 0,1.960498 -1.05649,1.960497 z m -9.2579,0.119808 q -0.098,1.666423 -1.51394,1.666423 -1.37234,0 -1.37234,-1.415915 l -0.0545,-1.100057 q -2.45063,0.392099 -3.50712,2.515972 l 0.0109,5.478501 q 0,0.620824 -0.42477,1.023815 -0.42478,0.413883 -1.07827,0.413883 -0.67529,0 -1.0456,-0.435666 -0.34854,-0.392099 -0.34854,-1.002032 v -7.134033 q 0,-0.337641 0.0218,-1.002032 0.0218,-0.675282 0.0218,-1.012923 0,-0.609933 0.35943,-1.012924 0.37031,-0.413883 1.0456,-0.413883 1.20897,0 1.43769,1.241649 1.92783,-1.437699 4.28042,-1.437699 2.17833,0 2.17833,2.89718 0,0.555474 -0.0109,0.729741 z m -16.37015,8.495489 q -2.01495,0 -3.46354,-1.38324 -1.59019,-1.51394 -1.66643,-4.040803 -0.0762,-2.407055 1.31789,-4.291311 1.65553,-2.221897 4.60717,-2.221897 2.17833,0 3.46355,1.742664 1.15451,1.568398 1.15451,3.88832 0,2.526863 -1.35056,4.313094 -1.51394,1.993173 -4.06259,1.993173 z m 0.6535,-9.061855 q -1.33967,-0.01089 -2.11298,1.219865 -0.6535,1.034707 -0.6535,2.417947 0,1.306998 0.74063,2.004064 0.58815,0.555474 1.37235,0.555474 0.94758,0 1.64464,-0.642607 0.79509,-0.751524 0.84955,-2.036739 0.14159,-3.507112 -1.84069,-3.518004 z m -7.03601,-6.687475 q -0.21783,0.795091 -0.21783,1.38324 0,0.304966 -0.0653,0.947574 -0.0545,0.631716 -0.0545,0.936682 0,1.034707 -0.10892,3.071446 -0.10891,2.036739 -0.10891,3.071446 0,0.795091 0.11981,2.37438 0.1198,1.57929 0.1198,2.374381 0,0.599041 -0.42477,1.012923 -0.42477,0.413883 -1.05649,0.413883 -0.64261,0 -1.11095,-0.413883 -0.46834,-0.402991 -0.46834,-0.99114 0,-0.795091 -0.0762,-2.385272 -0.0653,-1.590181 -0.0653,-2.385272 0,-0.620824 0.0218,-1.100057 -1.70999,0.07624 -4.22596,0.533691 -2.0912,0.381208 -4.1824,0.773307 -0.0218,0.740633 -0.15248,2.472406 -0.10892,1.524831 -0.10892,2.494188 0,0.599041 -0.42477,1.012924 -0.42477,0.413883 -1.05649,0.413883 -0.63172,0 -1.05649,-0.413883 -0.42478,-0.413883 -0.42478,-1.012924 0,-1.100057 0.18516,-3.289279 0.19605,-2.189222 0.19605,-3.289279 0,-1.394132 0.0653,-4.193286 0.0654,-2.810047 0.0654,-4.204178 0,-0.599041 0.42478,-1.012924 0.42477,-0.413883 1.05649,-0.413883 0.63171,0 1.05649,0.413883 0.42477,0.413883 0.42477,1.012924 0,0.827765 -0.0654,2.494188 -0.0545,1.655531 -0.0545,2.483297 0,0.272291 -0.0762,1.045599 -0.0654,0.718849 -0.0545,1.100056 l 4.1824,-0.784198 q 2.45062,-0.435667 4.22596,-0.501017 0.0436,-0.72974 0.14159,-3.920994 0.0218,-0.838658 0.51191,-1.927823 0.60993,-1.339673 1.38324,-1.339673 0.57725,0 1.02381,0.381208 0.47924,0.413882 0.47924,1.034707 0,0.163374 -0.0436,0.326749 z m -18.05836,6.338942 q -0.22872,0 -0.54458,-0.01089 -0.30496,-0.02178 -0.53369,-0.02178 -0.44656,0 -1.03471,0.08713 0.19605,4.400228 0.19605,5.750793 0,0.141591 0.0109,0.533691 0.0109,0.381208 0.0109,0.620824 0,2.50508 -1.57929,2.50508 -0.59904,0 -1.0347,-0.370316 -0.47924,-0.3921 -0.47924,-0.980249 0,-0.392099 0.0327,-1.176298 0.0327,-0.784199 0.0327,-1.176299 0,-1.31789 -0.19605,-5.641876 -0.67528,-0.03267 -2.04763,-0.174266 -1.36145,-0.152483 -1.36145,-1.415915 0,-0.609933 0.41388,-1.034707 0.41388,-0.424775 1.06738,-0.424775 0.40299,0 1.85158,0.1307 -0.0109,-0.348533 -0.0545,-1.154515 -0.0436,-0.697066 -0.0436,-1.078274 0,-0.609932 0.44656,-1.012923 0.44656,-0.402991 1.07827,-0.402991 1.61197,0 1.61197,2.712021 l -0.0218,0.893116 q 0.67528,-0.09802 1.10005,-0.09802 1.25255,0 1.70999,0.163375 0.87134,0.304966 0.87134,1.328781 0,0.620824 -0.42478,1.034707 -0.42477,0.413883 -1.07827,0.413883 z m -14.67106,9.268796 q -2.6031,0 -4.258633,-1.241648 -1.829798,-1.372348 -1.829798,-3.866537 0,-2.755588 1.44859,-4.661627 1.611965,-2.112981 4.345771,-2.112981 1.89515,0 3.14769,0.609933 1.64464,0.805982 1.64464,2.50508 0,1.198082 -1.33968,2.123872 -0.60993,0.424775 -2.45062,1.241649 l -3.670487,1.622856 q 0.522797,0.566366 1.263437,0.849549 0.74063,0.283183 1.69909,0.283183 1.45948,0 2.47241,-0.599041 0.90401,-0.533691 1.44859,-0.533691 1.13273,0 1.13273,1.100057 0,1.241648 -1.81891,2.025847 -1.52483,0.653499 -3.23482,0.653499 z M 102.49409,31.2724 q -1.01292,0 -1.73177,0.675283 -0.71885,0.675282 -1.15452,2.025847 1.23076,-0.533691 2.45062,-1.05649 1.47038,-0.664391 2.34171,-1.230757 -0.72974,-0.413883 -1.90604,-0.413883 z m -6.937984,2.254572 q -0.457449,2.559539 -0.544582,5.40226 -0.108917,3.518004 -1.176299,5.108185 -1.426806,2.123872 -5.053727,2.123872 -4.236853,0 -4.236853,-1.677314 0,-0.599041 0.381208,-0.969357 0.381208,-0.370316 1.002032,-0.370316 0.490125,0 1.405024,0.185158 0.914898,0.185158 1.622856,0.185158 1.622856,0 2.396163,-0.99114 0.740633,-0.969358 0.871333,-3.082338 -0.555475,0.566366 -1.252541,0.849549 -0.697065,0.283183 -1.524831,0.283183 -2.167439,0 -3.528895,-1.405024 -1.350565,-1.415914 -1.350565,-3.616028 0,-2.96253 1.808014,-4.792327 1.873364,-1.895148 5.064619,-1.895148 1.023815,0 1.764447,0.250508 0.740633,0.250508 1.198082,0.762416 1.38324,0.163375 1.38324,1.633748 0,0.72974 -0.228725,2.014955 z m -4.225961,-2.17833 q -1.840689,0 -2.864505,1.208973 -0.914898,1.100057 -0.914898,2.853613 0,1.296107 0.490124,1.949606 0.490124,0.653499 1.470373,0.653499 0.893116,0 1.797123,-1.034707 0.849549,-0.980248 0.969357,-1.938714 0.206941,-1.045599 0.479233,-3.256604 -0.370317,-0.217833 -0.729741,-0.32675 -0.359425,-0.108916 -0.697066,-0.108916 z M 80.329577,29.072286 q 0.141591,-3.714053 0.337641,-5.129968 0.185158,-1.285215 1.415915,-1.285215 0.642607,0 1.034707,0.413883 0.392099,0.413883 0.392099,1.012924 0,1.579289 -0.250508,4.705193 -0.239616,3.125905 -0.239616,4.705194 0,3.855645 0.250508,5.162644 0.03268,0.174266 0.03268,0.315858 0,0.599041 -0.435666,0.99114 -0.435666,0.381208 -1.012924,0.381208 -0.805982,0 -1.198082,-0.718849 -0.740632,0.446558 -1.535723,0.664391 -0.79509,0.228724 -1.644639,0.228724 -2.439731,0 -4.051695,-1.557506 -1.64464,-1.590181 -1.64464,-4.051695 0,-2.929854 1.655532,-4.726977 1.655531,-1.808014 4.323986,-1.808014 0.816874,0 1.459481,0.174266 0.642608,0.174267 1.110949,0.522799 z m -0.217833,3.430871 Q 79.752319,31.816983 79.175062,31.479342 78.597804,31.1417 77.802713,31.1417 q -1.611964,0 -2.417947,0.936683 -0.805982,0.92579 -0.805982,2.788263 0,1.176298 0.871332,2.014955 0.871333,0.838658 2.025848,0.838658 0.838657,0 1.274323,-0.19605 0.294075,-0.1307 1.002032,-0.697066 0.185158,-0.152483 0.359425,-0.337641 -0.02178,-0.522799 0,-3.986345 z m -10.750062,8.234089 q -0.501015,0 -1.590181,-1.089165 -1.002032,0.479233 -1.764447,0.718849 -0.762416,0.250508 -1.296107,0.250508 -2.624888,0 -3.942778,-1.405023 -1.306999,-1.405023 -1.306999,-4.204178 0,-2.624888 1.938714,-4.487361 1.938715,-1.873364 4.639844,-1.873364 1.034707,0 2.396164,0.588149 1.644639,0.707958 1.644639,1.64464 0,0.392099 -0.250508,0.686174 -0.108916,0.435666 -0.174266,1.100057 -0.05446,0.653499 -0.05446,1.535723 0,2.080306 0.294074,2.995204 0.03267,0.09802 0.501016,1.132732 0.424775,0.936682 0.424775,1.067382 0,0.577258 -0.446558,0.958466 -0.435666,0.381207 -1.012924,0.381207 z m -2.701129,-7.471673 q 0,-0.348533 0.04357,-0.795091 0.05446,-0.457449 0.152483,-1.012924 -0.217833,-0.108916 -0.3921,-0.152483 -0.163374,-0.05446 -0.283183,-0.05446 -1.481264,0 -2.592213,1.165407 -1.110949,1.154515 -1.110949,2.679346 0,1.459482 0.5228,2.200114 0.522799,0.729741 1.568398,0.729741 0.675282,0 1.274323,-0.217833 0.609932,-0.228723 1.143623,-0.664389 -0.326749,-2.592213 -0.326749,-3.877428 z m -8.430139,0.348533 q -0.740633,3.245712 -2.984313,5.195318 -2.276356,1.960497 -5.33691,1.960497 -2.89718,0 -4.34577,-1.524831 -1.44859,-1.535723 -1.44859,-4.596277 0,-2.788263 1.372349,-5.718118 1.372348,-2.929855 3.528895,-4.748761 1.51394,-1.274323 3.245713,-1.274323 1.05649,0 2.875396,0.762416 2.156547,0.904007 2.156547,1.927822 0,0.58815 -0.446557,1.056491 -0.446558,0.457449 -1.100057,0.457449 -0.32675,0 -1.44859,-0.609933 -1.110949,-0.620824 -2.036739,-0.620824 -0.980249,0 -2.646672,2.112981 -2.428839,3.071446 -2.428839,6.6548 0,1.818906 0.533691,2.472405 0.566366,0.686174 2.189223,0.686174 1.666423,0 2.929854,-0.947574 1.339674,-1.002032 1.982281,-2.918963 -2.526863,0.19605 -4.400227,1.034707 -0.337642,0.152483 -0.675283,0.152483 -0.675283,0 -1.12184,-0.501016 -0.402992,-0.446557 -0.402992,-1.012923 0,-1.666423 3.942779,-2.330814 2.221897,-0.370316 5.184427,-0.370316 0.653499,0 1.089165,0.424774 0.446558,0.424775 0.446558,1.045599 0,0.795091 -0.653499,1.230757 z" />
  </g>
</svg>
