<?xml version="1.0" encoding="UTF-8" standalone="no"?><svg width="226" height="192" viewBox="0 0 59.795832 50.8" version="1.1" id="svg5" xml:space="preserve" xmlns="http://www.w3.org/2000/svg" xmlns:svg="http://www.w3.org/2000/svg"><defs id="defs2" /><g id="layer1"><path id="path21881" style="fill:none;fill-opacity:1;stroke:#ffffff;stroke-width:3.75212;stroke-linecap:round;stroke-linejoin:round;stroke-miterlimit:17;stroke-dasharray:none;stroke-opacity:1;paint-order:stroke fill markers" d="m 29.087137,5.9115685 c -0.691287,0.00675 -0.90662,0.060201 -0.90662,0.060201 v 2.5836076 c 0,0 -0.482303,-4.5e-5 -0.964557,0.0344 -0.482251,0.03444 -0.895305,0.138053 -0.895305,0.138053 V 8.3381146 6.9019217 C 26.005226,6.7965208 25.686999,6.7101768 25.366058,6.6425648 c -0.0067,-0.0015 -0.01398,-0.0031 -0.02082,-0.0045 -0.0205,-0.0043 -0.04103,-0.0086 -0.06156,-0.01267 -0.288776,-0.0602 -0.607011,-0.111411 -0.915673,-0.130358 -0.0052,-4.5e-4 -0.01055,-9.16e-4 -0.01583,-0.0013 v 4.53e-4 c -0.115454,-0.0067 -0.229383,-0.0092 -0.339473,-0.0054 -0.998957,0.03444 -2.307973,0.5164479 -2.307973,0.5164479 l -0.0688,2.9280597 -0.482505,0.1724516 0.03439,-1.4814565 -1.292716,0.01992 -0.927439,0.01448 0.0037,10.1533835 a 10.833452,4.3747023 3.6920639 0 0 0.152989,0.864974 10.833452,4.3747023 3.6920639 0 0 0.142581,0.288327 10.833452,4.3747023 3.6920639 0 0 0.419586,0.570312 10.833452,4.3747023 3.6920639 0 0 0.275201,0.278819 10.833452,4.3747023 3.6920639 0 0 3.038966,1.74217 c 0.0018,1.63216 -0.08557,3.941574 -0.448106,6.664969 v 4.54e-4 c -0.02401,0.180372 -0.04912,0.362481 -0.07559,0.546321 v 4.54e-4 c -0.02647,0.183848 -0.05424,0.36958 -0.08328,0.556735 -0.116256,0.749209 -0.272378,1.481055 -0.456252,2.191178 v 4.54e-4 c -0.137877,0.532444 -0.291304,1.052501 -0.455345,1.558405 v 4.52e-4 c -1.367388,4.216773 -3.467525,7.443674 -3.359881,8.547001 0.02583,0.264807 0.258769,0.509721 0.656766,0.732807 h 4.52e-4 c 0.72972,0.408905 2.013171,0.744943 3.588913,0.996237 h 4.52e-4 c 1.119875,0.178577 2.387783,0.314059 3.708859,0.403296 v 4.51e-4 l 0.01221,4.5e-4 c 1.210227,0.08147 2.464982,0.124021 3.692564,0.124021 5.254688,0 9.191499,0.182353 10.060176,-1.294519 0.0034,-0.0057 0.0066,-0.01145 0.01,-0.01719 0.01428,-0.02519 0.02777,-0.0508 0.04028,-0.07695 0.0027,-0.0055 0.005,-0.01115 0.0077,-0.01675 0.01432,-0.03108 0.028,-0.0626 0.03984,-0.09505 0.244109,-0.669609 0.206441,-1.14285 0.0037,-1.791054 -0.02029,-0.06482 -0.04216,-0.131364 -0.06563,-0.200063 -0.117349,-0.343482 -0.273057,-0.739985 -0.45263,-1.23613 -0.07183,-0.198463 -0.147338,-0.412605 -0.225864,-0.645904 -0.07852,-0.233294 -0.160161,-0.485884 -0.243515,-0.759963 -0.04167,-0.137043 -0.08375,-0.279381 -0.126283,-0.427737 -0.340287,-1.186812 -0.704339,-2.747631 -1.032452,-4.872555 -0.04099,-0.265473 -0.08155,-0.539875 -0.121305,-0.823333 v -4.51e-4 c -0.03978,-0.283621 -0.07892,-0.576186 -0.117232,-0.878555 -0.03831,-0.302368 -0.07565,-0.614181 -0.112251,-0.936038 -0.146402,-1.28743 -0.272349,-2.413166 -0.380667,-3.396979 -0.108299,-0.983637 -0.198865,-1.825625 -0.274747,-2.546493 v -4.53e-4 c -0.0077,-0.07371 -0.01156,-0.114837 -0.01902,-0.186031 -0.05641,-0.538873 -0.103606,-1.002519 -0.143937,-1.40813 a 10.833452,4.3747023 3.6920639 0 0 0.971345,-0.312767 10.833452,4.3747023 3.6920639 0 0 0.0049,-0.0018 10.833452,4.3747023 3.6920639 0 0 0.45761,-0.182862 10.833452,4.3747023 3.6920639 0 0 0.0018,-8.34e-4 10.833452,4.3747023 3.6920639 0 0 0.426831,-0.196895 10.833452,4.3747023 3.6920639 0 0 0.0018,-8.34e-4 10.833452,4.3747023 3.6920639 0 0 0.391075,-0.209567 10.833452,4.3747023 3.6920639 0 0 0.0046,-0.0027 10.833452,4.3747023 3.6920639 0 0 0.334946,-0.209567 10.833452,4.3747023 3.6920639 0 0 0.02263,-0.01493 10.833452,4.3747023 3.6920639 0 0 0.3096,-0.228579 10.833452,4.3747023 3.6920639 0 0 0.0027,-0.0023 10.833452,4.3747023 3.6920639 0 0 0.254378,-0.222693 10.833452,4.3747023 3.6920639 0 0 0.0593,-0.05613 10.833452,4.3747023 3.6920639 0 0 0.148012,-0.159777 10.833452,4.3747023 3.6920639 0 0 0.07469,-0.0869 10.833452,4.3747023 3.6920639 0 0 0.109988,-0.146199 10.833452,4.3747023 3.6920639 0 0 0.07332,-0.110442 10.833452,4.3747023 3.6920639 0 0 0.08102,-0.137147 10.833452,4.3747023 3.6920639 0 0 0.06066,-0.124925 10.833452,4.3747023 3.6920639 0 0 0.05658,-0.129453 10.833452,4.3747023 3.6920639 0 0 0.04708,-0.150725 10.833452,4.3747023 3.6920639 0 0 0.03122,-0.109989 10.833452,4.3747023 3.6920639 0 0 0.03893,-0.264787 c 0,0 1.090388,-9.309266 1.090388,-9.619283 0,-0.07751 -0.0337,-0.137767 -0.09234,-0.185126 -0.02926,-0.02359 -0.06507,-0.04431 -0.105915,-0.06201 -0.2049,-0.08865 -0.542742,-0.110199 -0.888515,-0.131714 -0.553579,-0.03444 -1.221199,0.0344 -1.221199,0.0344 l -0.06427,0.434071 -0.07378,0.496082 -0.310051,-0.1032 c 0,0 0.275525,-2.4802095 0.03441,-2.9624594 -0.2412,-0.4823169 -2.996943,-1.2746719 -2.996943,-1.2746719 l -0.131262,0.043 -1.6598,0.542702 -0.154346,1.2564998 -0.0869,0.7070069 -1.37781,-0.3100509 0.103651,-2.7212087 c 0,0 0.413022,-0.241517 -1.757112,-0.3793029 -0.813799,-0.051671 -1.399826,-0.064236 -1.814598,-0.060201 z" /><g id="g25595" transform="matrix(0.83380871,0,0,0.83380627,3.3981336,4.2215055)"><path style="fill:#757573;fill-opacity:1;stroke:#282828;stroke-width:1.83833;stroke-linecap:round;stroke-linejoin:round;stroke-miterlimit:17;stroke-dasharray:none;stroke-opacity:1;paint-order:stroke fill markers" d="m 18.677274,17.498408 -0.0044,-12.1767201 2.662739,-0.041312 -0.04132,1.7764296 0.578372,-0.2065615 0.08263,-3.5115469 c 0,0 1.569868,-0.5783725 2.767927,-0.6196849 1.198058,-0.041312 2.767928,0.4957479 2.767928,0.4957479 v 2.1895527 c 0,0 0.495747,-0.1239369 1.074119,-0.1652493 0.578376,-0.041312 1.156748,-0.041312 1.156748,-0.041312 V 2.099327 c 0,0 0.660997,-0.1652492 3.263671,0 2.602678,0.1652494 2.106928,0.4544355 2.106928,0.4544355 l -0.123932,3.2636732 1.652491,0.3718107 0.289186,-2.3548019 2.14824,-0.7023096 c 0,0 3.304988,0.9501834 3.594174,1.5285558 0.289186,0.5783724 -0.04132,3.5528592 -0.04132,3.5528592 l 0.371812,0.123937 0.165248,-1.1154326 c 0,0 0.800763,-0.082625 1.46468,-0.041312 0.663915,0.041312 1.303247,0.082625 1.303247,0.4544355 0,0.3718102 -1.30765,11.5365472 -1.30765,11.5365472 z" id="path1021" /><path style="fill:#434343;fill-opacity:1;stroke:none;stroke-width:0.919166;stroke-linecap:round;stroke-linejoin:round;stroke-miterlimit:17;stroke-dasharray:none;stroke-opacity:1;paint-order:stroke fill markers" d="m 36.910354,3.8344445 -0.185096,1.5072109 2.132206,0.8741849 0.04319,-3.0320685 z" id="path9093" /><path id="path11673" style="fill:#585858;fill-opacity:1;stroke:none;stroke-width:1.83833;stroke-linecap:round;stroke-linejoin:round;stroke-miterlimit:17;stroke-dasharray:none;stroke-opacity:1;paint-order:stroke fill markers" d="m 19.785078,5.3040932 -1.112294,0.017371 0.0043,12.1771488 25.931824,1.673054 c 0,0 0.11075,-0.956534 0.136254,-1.174721 L 19.788878,16.386862 Z" /><path style="fill:#434343;fill-opacity:1;stroke:none;stroke-width:0.919166;stroke-linecap:round;stroke-linejoin:round;stroke-miterlimit:17;stroke-dasharray:none;stroke-opacity:1;paint-order:stroke fill markers" d="M 25.13063,2.7249556 24.886435,5.3187644 27.491143,4.9369171 V 3.2147601 C 26.718161,2.9564698 25.931551,2.7916426 25.13063,2.7249556 Z" id="path8875" /><path id="path13292" style="fill:#afafaf;fill-opacity:1;stroke:none;stroke-width:1.83833;stroke-linecap:round;stroke-linejoin:round;stroke-miterlimit:17;stroke-dasharray:none;stroke-opacity:1;paint-order:stroke fill markers" d="m 43.071607,7.7425629 c 0.0018,-9.74e-5 0.0025,-4.457e-4 0.0043,-5.428e-4 0.07079,-0.00388 0.14703,-0.00749 0.226368,-0.010316 0.07933,-0.00283 0.161692,-0.005 0.24591,-0.00597 0.08422,-9.683e-4 0.170246,-0.00116 0.255681,5.428e-4 0.08544,0.00169 0.17052,0.00515 0.25351,0.010316 0.08299,0.00517 0.165432,0.010473 0.246453,0.016285 0.08102,0.00581 0.160574,0.012339 0.237224,0.020085 0.07665,0.00774 0.150517,0.016712 0.220396,0.027685 0.03494,0.00548 0.06872,0.011379 0.101507,0.017914 0.0328,0.00653 0.06465,0.013425 0.09499,0.021171 0.03035,0.00774 0.05925,0.016396 0.08685,0.025514 0.02761,0.00912 0.05361,0.018663 0.07816,0.029313 0.02457,0.010651 0.04772,0.022397 0.06894,0.034742 0.02122,0.012345 0.04051,0.025427 0.05808,0.039628 0.01757,0.014201 0.03359,0.029381 0.04723,0.045599 0.01364,0.016218 0.02536,0.033716 0.03474,0.052113 0.0093,0.018397 0.01632,0.03789 0.02117,0.058628 0.0048,0.020736 0.0076,0.042447 0.0076,0.065684 0,0.023239 -0.005,0.088885 -0.01465,0.1910822 -0.0096,0.1021974 -0.02392,0.2410438 -0.0418,0.4114783 -0.03576,0.3408689 -0.08691,0.8076289 -0.148198,1.3571176 -0.122592,1.098979 -0.286022,2.5293 -0.449477,3.948128 -0.292798,2.541539 -0.527269,4.546443 -0.58519,5.041423 l 0.487478,0.03148 c 0,0 1.307719,-11.16478 1.307719,-11.5365897 0,-0.3718101 -0.639463,-0.4130513 -1.303377,-0.4543631 -0.663916,-0.041313 -1.464603,0.041256 -1.464603,0.041256 z" /><ellipse style="fill:#757573;fill-opacity:1;stroke:#282828;stroke-width:1.83833;stroke-linecap:round;stroke-linejoin:round;stroke-miterlimit:17;stroke-dasharray:none;stroke-opacity:1;paint-order:stroke fill markers" id="path306" cx="32.758041" cy="16.259378" rx="12.992731" ry="5.246665" transform="rotate(3.6920795)" /><path id="ellipse11493" style="fill:#585858;fill-opacity:1;stroke:none;stroke-width:1.83833;stroke-linecap:round;stroke-linejoin:round;stroke-miterlimit:17;stroke-dasharray:none;stroke-opacity:1;paint-order:stroke fill markers" d="m 20.190585,15.251226 a 12.99273,5.2466648 3.6920789 0 0 -1.513459,2.247388 12.99273,5.2466648 3.6920789 0 0 12.628262,6.072289 12.99273,5.2466648 3.6920789 0 0 12.901857,-3.263598 12.99273,5.2466648 3.6920789 0 1 -0.392479,0.258395 12.99273,5.2466648 3.6920789 0 1 -0.466849,0.262195 12.99273,5.2466648 3.6920789 0 1 -0.512448,0.246454 12.99273,5.2466648 3.6920789 0 1 -0.555332,0.230167 12.99273,5.2466648 3.6920789 0 1 -0.596048,0.212796 12.99273,5.2466648 3.6920789 0 1 -0.634588,0.194339 12.99273,5.2466648 3.6920789 0 1 -0.669874,0.174796 12.99273,5.2466648 3.6920789 0 1 -0.702445,0.155255 12.99273,5.2466648 3.6920789 0 1 -0.732301,0.134084 12.99273,5.2466648 3.6920789 0 1 -0.758358,0.113455 12.99273,5.2466648 3.6920789 0 1 -0.782243,0.09174 12.99273,5.2466648 3.6920789 0 1 -0.801786,0.06894 12.99273,5.2466648 3.6920789 0 1 -0.81807,0.04723 12.99273,5.2466648 3.6920789 0 1 -0.831644,0.02443 12.99273,5.2466648 3.6920789 0 1 -0.840328,0.0022 12.99273,5.2466648 3.6920789 0 1 -0.846842,-0.02117 12.99273,5.2466648 3.6920789 0 1 -0.848471,-0.04342 12.99273,5.2466648 3.6920789 0 1 -0.847385,-0.06623 12.99273,5.2466648 3.6920789 0 1 -0.842499,-0.08795 12.99273,5.2466648 3.6920789 0 1 -0.833271,-0.109655 12.99273,5.2466648 3.6920789 0 1 -0.821328,-0.131369 12.99273,5.2466648 3.6920789 0 1 -0.805585,-0.15146 12.99273,5.2466648 3.6920789 0 1 -0.786044,-0.172081 12.99273,5.2466648 3.6920789 0 1 -0.763786,-0.191084 12.99273,5.2466648 3.6920789 0 1 -0.73773,-0.210081 12.99273,5.2466648 3.6920789 0 1 -0.708958,-0.227453 12.99273,5.2466648 3.6920789 0 1 -0.676931,-0.243738 12.99273,5.2466648 3.6920789 0 1 -0.641646,-0.260025 12.99273,5.2466648 3.6920789 0 1 -0.604189,-0.274137 12.99273,5.2466648 3.6920789 0 1 -0.564019,-0.287166 12.99273,5.2466648 3.6920789 0 1 -0.521133,-0.299652 12.99273,5.2466648 3.6920789 0 1 -0.476078,-0.310509 12.99273,5.2466648 3.6920789 0 1 -0.429392,-0.319736 12.99273,5.2466648 3.6920789 0 1 -0.380536,-0.328424 12.99273,5.2466648 3.6920789 0 1 -0.330052,-0.334394 12.99273,5.2466648 3.6920789 0 1 -0.277937,-0.339821 12.99273,5.2466648 3.6920789 0 1 -0.225282,-0.344166 12.99273,5.2466648 3.6920789 0 1 -0.170997,-0.345793 12.99273,5.2466648 3.6920789 0 1 -0.116713,-0.34688 12.99273,5.2466648 3.6920789 0 1 -0.0608,-0.346336 12.99273,5.2466648 3.6920789 0 1 -0.006,-0.344166 12.99273,5.2466648 3.6920789 0 1 0.04995,-0.340908 12.99273,5.2466648 3.6920789 0 1 0.105314,-0.335479 12.99273,5.2466648 3.6920789 0 1 0.16014,-0.328966 12.99273,5.2466648 3.6920789 0 1 0.08631,-0.130283 z" /><path style="fill:#757573;fill-opacity:1;stroke:#282828;stroke-width:1.83833;stroke-linecap:round;stroke-linejoin:round;stroke-miterlimit:17;stroke-dasharray:none;stroke-opacity:1;paint-order:stroke fill markers" d="m 23.401229,18.913441 c 0,0 0.495748,5.205352 -0.619685,12.393694 -1.115434,7.188344 -5.287979,13.054694 -5.12273,14.748499 0.165249,1.693806 7.402985,2.70707 13.984225,2.70707 6.581238,0 11.439469,0.238979 12.182603,-1.799415 0.936885,-2.569854 -1.585988,-2.725398 -2.990606,-15.077782 -1.40462,-12.352381 -1.239372,-12.269757 -1.239372,-12.269757 0,0 -3.139737,-2.106928 -9.088714,-2.230865 -5.948976,-0.123936 -7.105721,1.528556 -7.105721,1.528556 z" id="path252" /><path style="fill:none;fill-opacity:1;stroke:#282828;stroke-width:0.919165;stroke-linecap:round;stroke-linejoin:round;stroke-miterlimit:17;stroke-dasharray:none;stroke-opacity:1;paint-order:stroke fill markers" d="m 24.723215,2.7190121 0.16322,2.5997523 2.604708,-0.3818473" id="path1455" /><path style="fill:none;fill-opacity:1;stroke:#282828;stroke-width:0.919166;stroke-linecap:round;stroke-linejoin:round;stroke-miterlimit:17;stroke-dasharray:none;stroke-opacity:1;paint-order:stroke fill markers" d="m 36.67755,5.7301384 2.179914,0.4857019 0.201129,-3.0837054" id="path1511" /><path id="path10760" style="fill:#585858;fill-opacity:1;stroke:none;stroke-width:1.83855389;stroke-linecap:round;stroke-linejoin:round;stroke-miterlimit:17;stroke-dasharray:none;stroke-opacity:1;paint-order:stroke fill markers" d="m 24.540422,18.176086 c -0.884509,0.373343 -1.139437,0.737187 -1.139437,0.737187 0,0 0.496043,5.205409 -0.619389,12.393745 -1.115432,7.188336 -5.288101,13.054813 -5.122852,14.748616 0.165249,1.693805 7.403061,2.70718 13.984295,2.70718 6.581231,0 11.439449,0.238853 12.182583,-1.799539 0.0071,-0.01953 0.01228,-0.03774 0.019,-0.057 -0.06424,0.02981 -0.129626,0.05879 -0.198681,0.08631 -0.08285,0.03303 -0.169294,0.06456 -0.258939,0.09446 -0.08965,0.02989 -0.182728,0.05833 -0.279024,0.08523 -0.0963,0.0269 -0.195766,0.05194 -0.298565,0.076 -0.1028,0.02407 -0.208951,0.04702 -0.318109,0.0684 -0.109158,0.02138 -0.221195,0.0414 -0.336566,0.06025 -0.11537,0.01886 -0.234128,0.03671 -0.355565,0.0532 -0.121437,0.01648 -0.245579,0.03188 -0.372936,0.04615 -0.127357,0.01425 -0.257718,0.02744 -0.39085,0.03962 -0.133132,0.01219 -0.268919,0.02338 -0.407679,0.03366 -0.138759,0.01029 -0.280264,0.01917 -0.424507,0.02769 -0.288483,0.01704 -0.587789,0.03088 -0.897326,0.0418 -0.309537,0.01091 -0.62979,0.01895 -0.959212,0.02497 -0.329421,0.006 -0.668071,0.01008 -1.016211,0.01248 -0.348138,0.0023 -0.705349,0.0034 -1.071038,0.0033 -0.365688,-7.3e-5 -0.739996,-0.0015 -1.122065,-0.0027 -0.764139,-0.0025 -1.559904,-0.006 -2.382558,-0.006 -0.205664,0 -0.412136,-0.0013 -0.618846,-0.0033 -0.20671,-0.002 -0.413733,-0.0047 -0.621018,-0.0087 -0.207283,-0.0039 -0.414715,-0.0088 -0.622103,-0.01465 -0.207387,-0.0059 -0.414541,-0.01288 -0.62156,-0.02063 -0.207018,-0.0078 -0.413754,-0.01642 -0.619932,-0.02606 -0.206178,-0.0097 -0.411809,-0.01998 -0.616675,-0.03148 -0.204865,-0.01151 -0.40925,-0.0241 -0.612332,-0.03746 -0.203081,-0.01335 -0.404992,-0.0277 -0.605817,-0.04288 -0.200826,-0.01518 -0.400121,-0.03133 -0.598218,-0.04831 -0.198098,-0.01699 -0.395177,-0.03442 -0.590075,-0.0532 -0.194899,-0.01877 -0.387991,-0.03863 -0.579219,-0.05917 -0.191227,-0.02054 -0.380191,-0.04177 -0.567275,-0.06406 -0.187085,-0.02229 -0.372321,-0.04547 -0.554791,-0.06949 -0.182469,-0.02401 -0.362206,-0.04919 -0.53959,-0.07491 -0.177384,-0.02572 -0.352022,-0.05185 -0.523848,-0.07926 -0.171826,-0.02741 -0.341223,-0.05616 -0.50702,-0.08523 -0.165796,-0.02907 -0.328181,-0.05886 -0.487476,-0.08957 -0.159295,-0.03071 -0.31507,-0.06213 -0.467392,-0.09446 -0.152322,-0.03233 -0.301344,-0.0654 -0.44622,-0.09934 -0.144877,-0.03394 -0.285919,-0.06871 -0.422879,-0.104228 -0.13696,-0.03552 -0.269878,-0.07203 -0.39845,-0.109113 -0.128572,-0.03708 -0.252682,-0.07484 -0.372393,-0.113454 -0.119712,-0.03863 -0.234871,-0.07765 -0.345251,-0.117798 -0.11038,-0.04015 -0.215905,-0.08103 -0.31648,-0.122684 -0.100573,-0.04165 -0.196324,-0.08444 -0.286623,-0.12757 -0.0903,-0.04313 -0.175043,-0.08678 -0.254596,-0.131369 -0.07955,-0.04459 -0.15369,-0.09022 -0.222025,-0.136254 -0.03416,-0.02302 -0.06698,-0.04612 -0.09825,-0.06948 -0.03127,-0.02337 -0.06124,-0.04684 -0.08957,-0.07057 -0.02832,-0.02373 -0.05504,-0.04758 -0.08034,-0.07165 -0.02531,-0.02408 -0.04887,-0.04831 -0.07112,-0.07275 -0.02224,-0.02442 -0.04331,-0.04906 -0.06243,-0.07383 -0.01911,-0.02477 -0.03674,-0.04979 -0.05266,-0.07491 -0.01593,-0.02512 -0.03021,-0.05054 -0.04288,-0.076 -0.01268,-0.02545 -0.02374,-0.05075 -0.03311,-0.07654 -0.0093,-0.0258 -0.0168,-0.05204 -0.02279,-0.07817 -0.006,-0.02614 -0.0104,-0.05225 -0.01303,-0.07871 -0.0026,-0.02646 -0.0039,-0.05403 -0.0043,-0.08251 -4.91e-4,-0.02849 8.7e-5,-0.05799 0.0017,-0.08848 0.003,-0.06099 0.0098,-0.126 0.02063,-0.194882 0.01088,-0.06888 0.02575,-0.141628 0.04397,-0.218225 0.01823,-0.0766 0.04003,-0.156886 0.06514,-0.241024 0.02512,-0.08414 0.05367,-0.17232 0.08523,-0.263823 0.03156,-0.09151 0.06614,-0.186299 0.103682,-0.284996 0.03754,-0.09869 0.07797,-0.200993 0.121055,-0.306708 0.04308,-0.105715 0.08863,-0.214777 0.136797,-0.327337 0.09634,-0.225119 0.202498,-0.464018 0.316481,-0.715473 0.113981,-0.251454 0.235696,-0.515617 0.363707,-0.792014 0.128012,-0.276396 0.262191,-0.564808 0.400622,-0.864755 0.13843,-0.299948 0.28144,-0.611591 0.426678,-0.933698 0.145239,-0.322106 0.292899,-0.65488 0.441335,-0.997753 0.07422,-0.171437 0.14877,-0.345309 0.22311,-0.521676 0.07434,-0.176368 0.148557,-0.355209 0.222568,-0.536334 0.07401,-0.181123 0.147708,-0.364739 0.220939,-0.550447 0.07323,-0.185707 0.145683,-0.373359 0.217681,-0.563475 0.072,-0.190115 0.143566,-0.382696 0.213882,-0.577046 0.07032,-0.194351 0.13973,-0.390577 0.207911,-0.58899 0.06818,-0.198411 0.135258,-0.398632 0.200854,-0.600932 0.06559,-0.202299 0.129609,-0.406863 0.192167,-0.612874 0.06256,-0.206012 0.123327,-0.413638 0.182397,-0.623188 0.05907,-0.209551 0.11641,-0.420588 0.17154,-0.633503 0.05513,-0.212915 0.108316,-0.427711 0.159055,-0.643817 0.05074,-0.216107 0.09904,-0.433922 0.14494,-0.653045 0.0459,-0.219124 0.08913,-0.439764 0.12974,-0.661731 0.0406,-0.221966 0.0786,-0.445238 0.113455,-0.669874 0.03486,-0.224635 0.06811,-0.447038 0.09988,-0.667701 0.03178,-0.220665 0.06183,-0.439264 0.09066,-0.65576 0.02883,-0.216496 0.05652,-0.431142 0.08252,-0.643274 0.026,-0.212131 0.05053,-0.422133 0.07383,-0.629703 0.0233,-0.207569 0.0455,-0.412776 0.06622,-0.615589 0.02073,-0.202812 0.03979,-0.403074 0.05808,-0.600932 0.01829,-0.197857 0.03559,-0.393026 0.05157,-0.585731 0.01598,-0.192706 0.03072,-0.383175 0.04451,-0.570533 0.0276,-0.374715 0.05094,-0.738437 0.07057,-1.09058 0.01963,-0.352143 0.0356,-0.692556 0.04831,-1.020553 0.01271,-0.327997 0.02251,-0.643362 0.02932,-0.94564 0.0068,-0.302277 0.01055,-0.591399 0.01248,-0.866384 0.0019,-0.274985 0.0019,-0.536124 0,-0.782243 -0.0019,-0.246119 -0.0056,-0.476994 -0.01029,-0.692673 -0.0047,-0.215679 -0.01029,-0.41618 -0.01683,-0.599846 -0.0065,-0.183666 -0.01391,-0.350968 -0.02117,-0.501048 -0.01164,-0.240459 -0.02243,-0.402005 -0.03258,-0.55099 z" /><path id="path13203" style="fill:#afafaf;fill-opacity:1;stroke:none;stroke-width:1.83833;stroke-linecap:round;stroke-linejoin:round;stroke-miterlimit:17;stroke-dasharray:none;stroke-opacity:1;paint-order:stroke fill markers" d="m 29.962925,17.378102 c -5.47635,-0.01575 -6.56194,1.535171 -6.56194,1.535171 0,0 0.0059,0.07505 0.0087,0.108027 0.03839,-0.02292 0.07239,-0.04466 0.115627,-0.0684 0.04309,-0.02367 0.08868,-0.04739 0.136798,-0.07165 0.04812,-0.02428 0.09862,-0.04915 0.151997,-0.07383 0.05337,-0.02467 0.10943,-0.0495 0.168283,-0.07437 0.05885,-0.02486 0.120559,-0.04952 0.18511,-0.07437 0.06455,-0.02485 0.132011,-0.04974 0.202482,-0.07437 0.07047,-0.02462 0.143783,-0.04909 0.220397,-0.07328 0.07661,-0.02419 0.156418,-0.04811 0.239396,-0.07165 0.08298,-0.02355 0.169374,-0.04679 0.258937,-0.06949 0.08956,-0.02269 0.182109,-0.04459 0.278481,-0.06622 0.09637,-0.02163 0.19625,-0.04315 0.299652,-0.06351 0.103398,-0.02036 0.210712,-0.03975 0.321366,-0.05863 0.110654,-0.01888 0.224952,-0.0371 0.34308,-0.05429 0.118126,-0.01719 0.240056,-0.03357 0.365879,-0.04886 0.125822,-0.01528 0.255481,-0.02916 0.389221,-0.04235 0.13374,-0.01317 0.271227,-0.02552 0.413108,-0.03637 0.141879,-0.01086 0.287836,-0.02044 0.438077,-0.02877 0.150242,-0.0083 0.304767,-0.01558 0.463592,-0.02117 0.158824,-0.0056 0.322018,-0.0099 0.489649,-0.01248 0.167629,-0.0026 0.339591,-0.0038 0.516247,-0.0033 0.176657,5.08e-4 0.358028,0.0026 0.543933,0.0065 0.185906,0.0039 0.368954,0.0098 0.549362,0.01738 0.180409,0.0077 0.358185,0.01711 0.533076,0.02823 0.174891,0.01112 0.346894,0.02417 0.516248,0.03854 0.169354,0.01437 0.336166,0.0304 0.499963,0.04776 0.163797,0.01736 0.324914,0.0358 0.483134,0.05592 0.158219,0.02012 0.313685,0.04198 0.466306,0.06459 0.152621,0.02262 0.302475,0.04624 0.449478,0.07112 0.147003,0.02487 0.290741,0.05076 0.432106,0.07763 0.141366,0.02687 0.280114,0.05444 0.415822,0.08305 0.135706,0.02863 0.268421,0.05836 0.39845,0.08848 0.130029,0.03012 0.257291,0.06091 0.381621,0.09228 0.12433,0.03138 0.246182,0.06317 0.364794,0.09554 0.118611,0.03237 0.234007,0.06513 0.346879,0.09825 0.112873,0.03313 0.222938,0.0668 0.330052,0.100426 0.107113,0.03364 0.211346,0.06763 0.31268,0.101507 0.101329,0.03389 0.199774,0.06762 0.295309,0.101507 0.191069,0.06778 0.370754,0.135101 0.538505,0.201396 0.16775,0.0663 0.323664,0.131525 0.467934,0.19434 0.14427,0.06282 0.276736,0.123429 0.397364,0.180768 0.120629,0.05734 0.229426,0.11136 0.326252,0.161226 0.09682,0.04987 0.181734,0.09532 0.254595,0.135712 0.07286,0.04039 0.133661,0.07584 0.182397,0.104774 0.09747,0.05785 0.146568,0.09066 0.146568,0.09066 0,0 -0.0025,-0.0013 -0.0043,0.02063 -0.0018,0.02187 -0.0027,0.06697 5.43e-4,0.159597 0.0033,0.09263 0.0105,0.232844 0.02552,0.445134 0.01501,0.212291 0.03754,0.496394 0.07112,0.877241 0.03356,0.380848 0.07789,0.858158 0.136798,1.45646 0.0589,0.598301 0.132636,1.317593 0.223653,2.182246 0.09101,0.864652 0.199599,1.8747 0.329507,3.054602 0.129908,1.1799 0.280958,2.530021 0.456535,4.074068 0.04389,0.386011 0.08869,0.759972 0.134627,1.122607 0.04594,0.362636 0.09289,0.713515 0.140598,1.053667 0.0477,0.340152 0.0963,0.669423 0.145483,0.987982 0.04918,0.318559 0.09889,0.626611 0.149283,0.924469 0.05039,0.297858 0.101759,0.58562 0.153082,0.86367 0.05133,0.278049 0.102747,0.546453 0.154712,0.805585 0.05197,0.259132 0.104007,0.509108 0.15634,0.750215 0.05233,0.241106 0.105005,0.473585 0.157426,0.697558 0.05243,0.223974 0.104648,0.439343 0.156883,0.647074 0.05224,0.207732 0.104575,0.407465 0.15634,0.599847 0.05177,0.192381 0.103156,0.377409 0.154169,0.555332 0.05101,0.177924 0.101465,0.348634 0.151454,0.512991 0.04998,0.164358 0.09952,0.322223 0.148197,0.473905 0.04868,0.151683 0.09677,0.297635 0.143855,0.437536 0.09417,0.2798 0.184733,0.536622 0.270881,0.774642 0.172296,0.476041 0.326509,0.875652 0.453277,1.227378 0.03169,0.08794 0.06142,0.172747 0.08957,0.255139 0.02815,0.08239 0.05438,0.162195 0.07871,0.239937 0.02433,0.07775 0.04655,0.153467 0.06677,0.227454 0.02022,0.07399 0.03845,0.14656 0.05429,0.217681 0.01584,0.07112 0.02954,0.140934 0.04072,0.210082 0.01118,0.06915 0.01982,0.137672 0.02606,0.20574 0.0062,0.06807 0.0099,0.13569 0.01085,0.203567 10e-4,0.06788 -4.02e-4,0.136073 -0.0049,0.204653 -0.0045,0.06859 -0.012,0.137736 -0.02226,0.207911 -0.01029,0.07017 -0.02331,0.141221 -0.03962,0.213882 -0.01632,0.07266 -0.03597,0.146529 -0.05863,0.222568 -0.02266,0.07603 -0.04835,0.154202 -0.07763,0.234509 -0.01161,0.03185 -0.02439,0.06316 -0.038,0.09391 -0.01361,0.03075 -0.02784,0.06099 -0.04343,0.09066 -0.01559,0.02966 -0.03239,0.05879 -0.04994,0.0874 0.331667,-0.222658 0.565603,-0.494183 0.687245,-0.827842 0.936846,-2.569844 -1.585968,-2.725205 -2.990585,-15.077576 -1.404619,-12.352368 -1.239321,-12.269976 -1.239321,-12.269976 0,0 -3.139925,-2.107164 -9.088895,-2.231101 -0.185906,-0.0039 -0.367278,-0.006 -0.543934,-0.0065 z" /><path id="path13210" style="fill:#afafaf;fill-opacity:1;stroke:none;stroke-width:1.83833;stroke-linecap:round;stroke-linejoin:round;stroke-miterlimit:17;stroke-dasharray:none;stroke-opacity:1;paint-order:stroke fill markers" d="m 30.285378,13.034781 a 12.99273,5.2466648 3.6920789 0 0 -10.993205,3.03723 12.99273,5.2466648 3.6920789 0 1 0.315938,-0.246996 12.99273,5.2466648 3.6920789 0 1 0.419078,-0.276308 12.99273,5.2466648 3.6920789 0 1 0.466848,-0.262195 12.99273,5.2466648 3.6920789 0 1 0.512449,-0.246454 12.99273,5.2466648 3.6920789 0 1 0.555333,-0.230167 12.99273,5.2466648 3.6920789 0 1 0.596046,-0.212796 12.99273,5.2466648 3.6920789 0 1 0.634589,-0.194339 12.99273,5.2466648 3.6920789 0 1 0.669873,-0.174797 12.99273,5.2466648 3.6920789 0 1 0.702445,-0.155254 12.99273,5.2466648 3.6920789 0 1 0.732302,-0.134626 12.99273,5.2466648 3.6920789 0 1 0.758358,-0.112913 12.99273,5.2466648 3.6920789 0 1 0.782243,-0.09174 12.99273,5.2466648 3.6920789 0 1 0.801785,-0.06949 12.99273,5.2466648 3.6920789 0 1 0.818072,-0.04669 12.99273,5.2466648 3.6920789 0 1 0.831642,-0.02497 12.99273,5.2466648 3.6920789 0 1 0.840328,-0.0016 12.99273,5.2466648 3.6920789 0 1 0.846842,0.02117 12.99273,5.2466648 3.6920789 0 1 0.848471,0.04342 12.99273,5.2466648 3.6920789 0 1 0.29097,0.02004 12.99273,5.2466648 3.6920789 0 1 0.290419,0.02285 12.99273,5.2466648 3.6920789 0 1 0.290425,0.02495 12.99273,5.2466648 3.6920789 0 1 0.289337,0.02825 12.99273,5.2466648 3.6920789 0 1 0.288795,0.0304 12.99273,5.2466648 3.6920789 0 1 0.287708,0.03311 12.99273,5.2466648 3.6920789 0 1 0.286624,0.03583 12.99273,5.2466648 3.6920789 0 1 0.285538,0.03799 12.99273,5.2466648 3.6920789 0 1 0.284452,0.04071 12.99273,5.2466648 3.6920789 0 1 0.282823,0.04343 12.99273,5.2466648 3.6920789 0 1 0.281195,0.0456 12.99273,5.2466648 3.6920789 0 1 0.279023,0.04777 12.99273,5.2466648 3.6920789 0 1 0.277396,0.05103 12.99273,5.2466648 3.6920789 0 1 0.275766,0.05266 12.99273,5.2466648 3.6920789 0 1 0.273052,0.05537 12.99273,5.2466648 3.6920789 0 1 0.270882,0.05754 12.99273,5.2466648 3.6920789 0 1 0.268709,0.06026 12.99273,5.2466648 3.6920789 0 1 0.265995,0.06243 12.99273,5.2466648 3.6920789 0 1 0.262739,0.0646 12.99273,5.2466648 3.6920789 0 1 0.260566,0.06677 12.99273,5.2466648 3.6920789 0 1 0.25731,0.06894 12.99273,5.2466648 3.6920789 0 1 0.254053,0.07111 12.99273,5.2466648 3.6920789 0 1 0.251338,0.07328 12.99273,5.2466648 3.6920789 0 1 0.247538,0.07546 12.99273,5.2466648 3.6920789 0 1 0.243738,0.07709 12.99273,5.2466648 3.6920789 0 1 0.240482,0.07926 12.99273,5.2466648 3.6920789 0 1 0.237225,0.08143 12.99273,5.2466648 3.6920789 0 1 0.232881,0.0836 12.99273,5.2466648 3.6920789 0 1 0.228538,0.08523 12.99273,5.2466648 3.6920789 0 1 0.22474,0.08685 12.99273,5.2466648 3.6920789 0 1 0.220939,0.08903 12.99273,5.2466648 3.6920789 0 1 0.216052,0.09066 12.99273,5.2466648 3.6920789 0 1 0.212254,0.09229 12.99273,5.2466648 3.6920789 0 1 0.207368,0.09391 12.99273,5.2466648 3.6920789 0 1 0.202482,0.09554 12.99273,5.2466648 3.6920789 0 1 0.19814,0.09717 12.99273,5.2466648 3.6920789 0 1 0.193253,0.09825 12.99273,5.2466648 3.6920789 0 1 0.187826,0.100428 12.99273,5.2466648 3.6920789 0 1 0.183482,0.101516 12.99273,5.2466648 3.6920789 0 1 0.178053,0.102597 12.99273,5.2466648 3.6920789 0 1 0.172626,0.104225 12.99273,5.2466648 3.6920789 0 1 0.16774,0.105858 12.99273,5.2466648 3.6920789 0 1 0.162312,0.106392 12.99273,5.2466648 3.6920789 0 1 0.15634,0.108028 12.99273,5.2466648 3.6920789 0 1 0.151454,0.108576 12.99273,5.2466648 3.6920789 0 1 0.145483,0.1102 12.99273,5.2466648 3.6920789 0 1 0.140054,0.110746 12.99273,5.2466648 3.6920789 0 1 0.134084,0.11237 12.99273,5.2466648 3.6920789 0 1 0.128112,0.112365 12.99273,5.2466648 3.6920789 0 1 0.122141,0.113997 12.99273,5.2466648 3.6920789 0 1 0.116712,0.113999 12.99273,5.2466648 3.6920789 0 1 0.110198,0.115084 12.99273,5.2466648 3.6920789 0 1 0.104227,0.116168 12.99273,5.2466648 3.6920789 0 1 0.09826,0.116169 12.99273,5.2466648 3.6920789 0 1 0.09228,0.116713 12.99273,5.2466648 3.6920789 0 1 0.08577,0.117255 12.99273,5.2466648 3.6920789 0 1 0.0798,0.117798 12.99273,5.2466648 3.6920789 0 1 0.07328,0.118341 12.99273,5.2466648 3.6920789 0 1 0.06677,0.11834 12.99273,5.2466648 3.6920789 0 1 0.06026,0.118341 12.99273,5.2466648 3.6920789 0 1 0.05429,0.118883 12.99273,5.2466648 3.6920789 0 1 0.04777,0.118885 12.99273,5.2466648 3.6920789 0 1 0.04126,0.118883 12.99273,5.2466648 3.6920789 0 1 0.03474,0.118884 12.99273,5.2466648 3.6920789 0 1 0.02823,0.119426 12.99273,5.2466648 3.6920789 0 1 0.02171,0.11834 12.99273,5.2466648 3.6920789 0 1 0.0152,0.118884 12.99273,5.2466648 3.6920789 0 1 0.0092,0.118341 12.99273,5.2466648 3.6920789 0 1 0.0022,0.117799 12.99273,5.2466648 3.6920789 0 1 -0.0043,0.117798 12.99273,5.2466648 3.6920789 0 1 -0.04995,0.340907 12.99273,5.2466648 3.6920789 0 1 -0.105314,0.335481 12.99273,5.2466648 3.6920789 0 1 -0.160139,0.328965 12.99273,5.2466648 3.6920789 0 1 -0.213882,0.321365 12.99273,5.2466648 3.6920789 0 1 -0.08577,0.09988 12.99273,5.2466648 3.6920789 0 0 1.170921,-1.982478 12.99273,5.2466648 3.6920789 0 0 -12.62826,-6.072289 12.99273,5.2466648 3.6920789 0 0 -1.695314,-0.06459 z" /><path style="fill:#a56644;fill-opacity:1;stroke:#282828;stroke-width:1.83833;stroke-linecap:butt;stroke-linejoin:miter;stroke-miterlimit:17;stroke-dasharray:none;stroke-opacity:1;paint-order:stroke fill markers" d="m 27.199843,48.61343 c 0,0 -2.829224,-10.820259 3.549452,-10.820259 5.84921,0 3.078826,10.975141 3.078826,10.975141 L 27.199843,48.61343" id="path16324" /><path id="path18347" style="fill:#784a31;fill-opacity:1;stroke:none;stroke-width:1.83833;stroke-linecap:butt;stroke-linejoin:miter;stroke-miterlimit:17;stroke-dasharray:none;stroke-opacity:1;paint-order:stroke fill markers" d="m 28.642177,38.330375 c -3.560125,2.18377 -1.442345,10.283156 -1.442345,10.283156 l 6.628167,0.154712 c 0,0 0.109441,-0.437884 0.238853,-1.13238 l -5.755269,-0.134084 c 0,0 -0.01124,-0.04234 -0.0304,-0.121597 -0.0096,-0.03962 -0.02093,-0.08857 -0.0342,-0.146026 -0.01327,-0.05746 -0.02829,-0.12363 -0.04451,-0.197597 -0.01623,-0.07396 -0.03367,-0.155667 -0.05211,-0.244823 -0.01845,-0.08915 -0.03761,-0.18577 -0.05755,-0.288795 -0.01993,-0.103031 -0.04066,-0.212307 -0.06134,-0.32788 -0.02068,-0.115573 -0.04173,-0.237451 -0.06243,-0.36425 -0.02069,-0.126801 -0.04082,-0.258487 -0.0608,-0.395193 -0.01998,-0.136706 -0.03956,-0.27813 -0.05808,-0.423421 -0.0092,-0.07264 -0.01838,-0.146394 -0.02714,-0.220939 -0.0087,-0.07454 -0.01734,-0.150089 -0.02552,-0.226367 -0.0082,-0.07628 -0.01586,-0.153406 -0.02334,-0.231253 -0.0075,-0.07785 -0.01446,-0.156346 -0.02117,-0.235596 -0.0067,-0.07925 -0.01316,-0.158907 -0.019,-0.239395 -0.0059,-0.08049 -0.01141,-0.161635 -0.01628,-0.243196 -0.0048,-0.08156 -0.0092,-0.163984 -0.01303,-0.246453 -0.0038,-0.08247 -0.0071,-0.164869 -0.0098,-0.248081 -0.0027,-0.08321 -0.0045,-0.167005 -0.006,-0.250795 -0.0015,-0.08379 -0.0026,-0.167679 -0.0027,-0.251882 -1.18e-4,-0.08421 8.69e-4,-0.168516 0.0022,-0.252966 0.0013,-0.08445 0.0032,-0.168976 0.006,-0.25351 0.0028,-0.08453 0.0064,-0.169059 0.01086,-0.25351 0.0044,-0.08445 0.0097,-0.169307 0.01575,-0.25351 0.0061,-0.0842 0.01327,-0.16809 0.02117,-0.25188 0.0079,-0.0838 0.01628,-0.167041 0.02606,-0.250253 0.0098,-0.08321 0.02082,-0.166155 0.03258,-0.248624 0.01174,-0.08247 0.02419,-0.164891 0.03799,-0.246453 0.01381,-0.08156 0.02909,-0.162165 0.04506,-0.242652 0.01597,-0.08049 0.03282,-0.160689 0.05103,-0.239938 0.01822,-0.07925 0.03753,-0.15775 0.05808,-0.235596 0.02055,-0.07785 0.04217,-0.154976 0.06514,-0.231254 0.01149,-0.03814 0.02371,-0.07629 0.03583,-0.113997 0.01211,-0.03771 0.02416,-0.0751 0.03691,-0.112369 0.01275,-0.03727 0.02568,-0.07448 0.03909,-0.111284 0.01339,-0.03681 0.0272,-0.07333 0.04125,-0.109655 0.01406,-0.03633 0.0287,-0.07221 0.04343,-0.108028 0.01473,-0.03582 0.02964,-0.07111 0.04506,-0.106397 0.01541,-0.0353 0.03112,-0.07057 0.04723,-0.105313 0.0161,-0.03474 0.03259,-0.06896 0.04939,-0.103146 0.01681,-0.03417 0.03404,-0.06847 0.05157,-0.102053 0.01752,-0.03358 0.03549,-0.0669 0.05374,-0.09988 0.01825,-0.03298 0.03692,-0.06536 0.05592,-0.09772 0.01899,-0.03234 0.03834,-0.06438 0.05808,-0.09609 0.0087,-0.01401 0.01772,-0.02791 0.0266,-0.0418 z" /><path id="path20574" style="fill:#bb7f5a;fill-opacity:1;stroke:none;stroke-width:1.83833;stroke-linecap:butt;stroke-linejoin:miter;stroke-miterlimit:17;stroke-dasharray:none;stroke-opacity:1;paint-order:stroke fill markers" d="m 30.749512,37.792956 c -1.389053,0 -2.341812,0.513109 -2.981862,1.315862 0.02122,-0.0168 0.04236,-0.03363 0.06406,-0.04994 0.02964,-0.02229 0.06011,-0.04377 0.09066,-0.06514 0.03055,-0.02137 0.06137,-0.04253 0.09283,-0.06296 0.03146,-0.02043 0.06315,-0.04024 0.09554,-0.05971 0.03239,-0.01948 0.06548,-0.03851 0.0988,-0.057 0.03332,-0.01849 0.06725,-0.0368 0.101507,-0.05429 0.03427,-0.01749 0.06901,-0.03401 0.104228,-0.05049 0.03522,-0.01647 0.07075,-0.03289 0.106942,-0.04831 0.03619,-0.01543 0.07303,-0.03015 0.110197,-0.04451 0.03717,-0.01436 0.07475,-0.02797 0.112913,-0.04125 0.03816,-0.01328 0.077,-0.02637 0.116169,-0.03854 0.03917,-0.01217 0.0787,-0.02369 0.118884,-0.03474 0.04018,-0.01105 0.08093,-0.02158 0.122141,-0.03148 0.04121,-0.0099 0.08261,-0.01894 0.124854,-0.02769 0.04225,-0.0087 0.08536,-0.01687 0.128655,-0.02442 0.0433,-0.0076 0.08701,-0.01482 0.131369,-0.02117 0.04435,-0.0063 0.0892,-0.01171 0.134626,-0.01683 0.04543,-0.0051 0.09137,-0.0097 0.137883,-0.01357 0.04652,-0.0039 0.09353,-0.0071 0.141141,-0.0098 0.04761,-0.0026 0.09568,-0.0046 0.144397,-0.006 0.04872,-0.0013 0.09837,-0.0022 0.148198,-0.0022 0.04569,0 0.09052,8.43e-4 0.135168,0.0022 0.04464,0.0014 0.08884,0.0034 0.132456,0.006 0.04361,0.0026 0.08661,0.0059 0.129197,0.0098 0.04259,0.0039 0.08491,0.0084 0.126484,0.01357 0.04158,0.0051 0.08265,0.01148 0.123226,0.01791 0.04057,0.0064 0.08039,0.01351 0.119969,0.02117 0.03958,0.0077 0.07866,0.01557 0.117255,0.02442 0.03859,0.0088 0.07692,0.01818 0.114542,0.02823 0.03763,0.01008 0.07462,0.02082 0.111283,0.03203 0.03667,0.01121 0.07285,0.02293 0.108569,0.03529 0.03572,0.01235 0.07108,0.02561 0.105855,0.03909 0.03478,0.01347 0.06929,0.02723 0.103147,0.0418 0.03386,0.01457 0.06695,0.02995 0.09988,0.0456 0.03293,0.01565 0.06569,0.03161 0.09771,0.04831 0.03203,0.0167 0.06332,0.03383 0.09446,0.05157 0.03114,0.01774 0.06203,0.03607 0.09228,0.05482 0.03025,0.01875 0.06019,0.03833 0.08957,0.05808 0.02938,0.01975 0.05834,0.03953 0.08685,0.06025 0.02852,0.02073 0.05647,0.04238 0.08414,0.06406 0.02767,0.02167 0.0546,0.04362 0.08142,0.06622 0.02683,0.02261 0.05326,0.04542 0.07926,0.06894 0.026,0.02352 0.0519,0.0478 0.07708,0.0722 0.02518,0.02441 0.05,0.04909 0.07437,0.07437 0.02437,0.02527 0.04808,0.05096 0.07165,0.07708 0.02357,0.02613 0.04669,0.05285 0.06949,0.07979 0.02278,0.02696 0.0453,0.05421 0.06731,0.08197 0.02201,0.02775 0.0439,0.05614 0.06514,0.08469 0.02125,0.02854 0.04194,0.05701 0.06243,0.08632 0.02049,0.02931 0.04051,0.05952 0.06025,0.08957 0.01975,0.03005 0.03907,0.06042 0.05808,0.0912 0.01901,0.03077 0.03762,0.06189 0.05592,0.09337 0.0183,0.03147 0.03669,0.06285 0.05429,0.09499 0.01758,0.03216 0.03468,0.0649 0.05157,0.09772 0.01689,0.03282 0.03319,0.06589 0.0494,0.09934 0.0162,0.03345 0.03225,0.06744 0.04776,0.101507 0.01553,0.03407 0.03075,0.06847 0.0456,0.103146 0.01485,0.03467 0.02922,0.06953 0.04343,0.104775 0.0142,0.03524 0.02825,0.0706 0.0418,0.106398 0.01355,0.0358 0.0267,0.07169 0.03962,0.108026 0.01292,0.03633 0.02571,0.07335 0.038,0.110198 0.0123,0.03684 0.02414,0.07395 0.03583,0.111283 0.01168,0.03733 0.02311,0.07456 0.0342,0.11237 0.02218,0.07561 0.04314,0.152255 0.06298,0.229624 0.01983,0.07737 0.03833,0.155549 0.05592,0.23451 0.01757,0.07896 0.03399,0.158469 0.04939,0.238854 0.01541,0.08038 0.0301,0.161554 0.04343,0.243195 0.01333,0.08164 0.02558,0.163723 0.03691,0.246452 0.01133,0.08272 0.02151,0.16606 0.03095,0.249711 0.0095,0.08365 0.0179,0.16802 0.02552,0.252423 0.0076,0.08441 0.0142,0.169063 0.02009,0.254053 0.0059,0.08499 0.01097,0.170272 0.0152,0.255681 0.0042,0.0854 0.0077,0.171106 0.01029,0.256766 0.0026,0.08566 0.0047,0.171024 0.006,0.256767 0.0012,0.08574 0.0018,0.17165 0.0017,0.25731 -1.8e-4,0.08566 -0.0013,0.171358 -0.0027,0.256766 -0.0015,0.08541 -0.0033,0.170691 -0.006,0.255681 -0.0027,0.08499 -0.006,0.169649 -0.0098,0.254053 -0.0038,0.0844 -0.0082,0.168231 -0.01303,0.251881 -0.0048,0.08365 -0.01051,0.166981 -0.01628,0.249709 -0.0058,0.08272 -0.0118,0.164813 -0.01846,0.246453 -0.0066,0.08164 -0.01373,0.162812 -0.02117,0.243196 -0.0075,0.08038 -0.01521,0.159892 -0.02334,0.238853 -0.0081,0.07896 -0.01679,0.157683 -0.02552,0.235052 -0.01746,0.15474 -0.03602,0.305907 -0.05537,0.453278 -0.01935,0.147371 -0.03917,0.29073 -0.05971,0.429392 -0.02055,0.138663 -0.04194,0.27255 -0.06297,0.401165 -0.02104,0.128614 -0.04212,0.251908 -0.06296,0.369135 -0.02084,0.117228 -0.04139,0.228266 -0.06134,0.332766 -0.01995,0.104501 -0.03918,0.202705 -0.05754,0.293138 -0.01142,0.05621 -0.02199,0.103807 -0.03258,0.154168 l 0.42885,0.0098 c 0,0 2.770716,-10.975286 -3.078487,-10.975286 z" /></g><path style="fill:#555555;fill-opacity:1;stroke:#282828;stroke-width:1.533;stroke-linecap:round;stroke-linejoin:round;stroke-miterlimit:17;stroke-dasharray:none;stroke-opacity:1;paint-order:stroke fill markers" d="m 27.435791,30.005912 h 3.814244 c 0,0 1.2006,-5.656694 -1.749197,-5.601673 -2.949795,0.05502 -2.065047,5.601673 -2.065047,5.601673 z" id="path37237" /></g></svg>  