<?xml version="1.0" encoding="UTF-8" standalone="no"?>
<svg
   viewBox="0 0 48 40.738998"
   version="1.1"
   sodipodi:docname="logo.svg"
   width="48"
   height="40.738998"
   inkscape:version="1.2 (dc2aedaf03, 2022-05-15)"
   xmlns:inkscape="http://www.inkscape.org/namespaces/inkscape"
   xmlns:sodipodi="http://sodipodi.sourceforge.net/DTD/sodipodi-0.dtd"
   xmlns="http://www.w3.org/2000/svg"
   xmlns:svg="http://www.w3.org/2000/svg">
  <sodipodi:namedview
     id="namedview2526"
     pagecolor="#ffffff"
     bordercolor="#000000"
     borderopacity="0.25"
     inkscape:showpageshadow="2"
     inkscape:pageopacity="0.0"
     inkscape:pagecheckerboard="0"
     inkscape:deskcolor="#d1d1d1"
     showgrid="false"
     inkscape:zoom="12.145833"
     inkscape:cx="25.852487"
     inkscape:cy="10.209262"
     inkscape:window-width="2560"
     inkscape:window-height="1369"
     inkscape:window-x="1912"
     inkscape:window-y="-8"
     inkscape:window-maximized="1"
     inkscape:current-layer="レイヤー_1" />
  <defs
     id="defs2517">
    <style
       id="style2515">.cls-1{fill:#61b98b;}.cls-2{fill:#fff;}.cls-3{fill:#222;}</style>
  </defs>
  <path
     class="cls-2"
     d="m 43.868989,20.56452 0.482169,-4.262812 A 4.5367719,4.5367719 0 0 0 39.51851,11.436184 L 28.17658,12.203271 A 10.311842,10.311842 0 0 1 21.382381,10.230762 L 13.71151,4.6200683 A 20.689434,20.689434 0 0 0 7.1364782,1.0585925 L 7.9912318,4.1707743 7.8597313,3.7433972 6.763893,4.904986 1.6353682,9.5951751 A 1.7862169,1.7862169 0 0 0 1.4162005,11.951228 c 0.4931274,0.657504 1.3697983,2.125927 2.1259269,1.808134 l 3.5286004,-1.556091 a 4.8436067,4.8436067 0 0 0 4.2080202,-0.646544 l 3.73681,9.007793 3.024514,9.972131 0.493128,9.040669 h 1.7643 l 1.545132,-9.358462 v -5.610694 a 20.010013,20.010013 0 0 0 12.284352,0.646545 l 3.451891,4.843607 0.20821,9.479004 h 1.567049 l 1.742383,-10.443342 0.558878,0.964338 0.526003,9.479004 h 1.55609 l 1.742384,-10.410467 z m -6.235322,2.849181 0.07671,-0.05479 0.06575,0.09863 z"
     id="path2521"
     style="stroke-width:1.09584;fill:#254441;fill-opacity:1" />
</svg>
